<?xml version="1.0" standalone="no"?>
<!DOCTYPE svg PUBLIC "-//W3C//DTD SVG 1.1//EN" "http://www.w3.org/Graphics/SVG/1.1/DTD/svg11.dtd" >
<svg xmlns="http://www.w3.org/2000/svg">
<metadata>
<json>
{
	"fontFamily": "cosmo",
	"majorVersion": 1,
	"minorVersion": 0,
	"fontURL": "http://www.icojam.com/",
	"designer": "icojam",
	"license": "royalty free stock icons",
	"designerURL": "http://www.icojam.com/",
	"version": "Version 1.0",
	"fontId": "cosmo",
	"psName": "cosmo",
	"subFamily": "Regular",
	"fullName": "cosmo",
	"description": "Generated by IcoMoon"
}
</json>
</metadata>
<defs>
<font id="cosmo" horiz-adv-x="512">
<font-face units-per-em="512" ascent="480" descent="-32" />
<missing-glyph horiz-adv-x="512" />
<glyph unicode="&#x20;" d="" horiz-adv-x="256" />
<glyph unicode="&#xe600;" d="M94.823 403.072h322.471c31.014 0 56.32-25.305 56.32-56.32v-220.185c0-31.040-25.305-56.333-56.32-56.333h-322.471c-31.014 0-56.307 25.305-56.307 56.333v220.185c-0.013 31.027 25.28 56.32 56.307 56.32v0zM126.413 190.118c7.834-13.594 22.694-19.673 41.818-8.64 10.15 5.863 20.864 16.192 27.507 26.611 4.454 6.976 15.757 7.014 20.211 0.026 6.656-10.432 17.369-20.762 27.507-26.637 19.123-11.034 33.984-4.941 41.817 8.64 7.834 13.568 5.671 29.504-13.44 40.537-10.048 5.798-24.166 9.894-36.441 10.509-8.269 0.397-14.31 10.893-10.56 18.265 5.542 10.918 9.011 25.075 9.011 36.608 0 22.093-12.71 31.91-28.377 31.91s-28.377-9.831-28.377-31.911c0-11.533 3.469-25.715 9.024-36.621 3.738-7.334-2.24-17.805-10.458-18.291-12.121-0.73-25.933-4.762-35.802-10.47-19.111-11.046-21.273-26.983-13.44-40.538v0zM371.226 236.647c0-14.131 11.456-25.6 25.6-25.6s25.6 11.469 25.6 25.6-11.456 25.6-25.6 25.6-25.6-11.456-25.6-25.6v0zM204.864 351.859c-63.59 0-115.174-51.584-115.174-115.213s51.584-115.226 115.174-115.226c63.603 0 115.174 51.597 115.174 115.226s-51.571 115.213-115.174 115.213z" />
<glyph unicode="&#xe601;" d="M81.856 364.672h348.070c31.027 0 56.307-25.306 56.307-56.333v-156.173c0-31.027-25.293-56.333-56.307-56.333h-348.070c-31.014 0-56.307 25.318-56.307 56.333v156.173c0 31.040 25.293 56.333 56.307 56.333v0zM396.711 230.221c0-10.586 8.576-19.175 19.175-19.175s19.175 8.589 19.175 19.174-8.576 19.187-19.175 19.187-19.175-8.601-19.175-19.187v0zM241.561 249.446c-6.208 0.013-11.264-5.069-11.264-11.264v-15.808c0-6.221 5.056-11.277 11.264-11.277h105.446c6.208 0 11.264 5.056 11.264 11.277v15.808c0 6.195-5.056 11.264-11.264 11.264h-105.447zM241.6 313.408c-6.208 0-11.264-5.069-11.264-11.277v-15.808c0-6.208 5.056-11.264 11.264-11.264h105.446c6.208 0 11.264 5.056 11.264 11.264v15.808c0 6.208-5.056 11.277-11.264 11.277h-105.447zM88.051 185.498c-6.208 0-11.264-5.069-11.264-11.277v-15.923c0-6.195 5.069-11.264 11.264-11.264h259.008c6.208 0 11.264 5.069 11.264 11.264v15.923c0 6.208-5.056 11.277-11.264 11.277h-259.008zM88.051 249.408c-6.208 0-11.264-5.069-11.264-11.277v-15.821c0-6.195 5.069-11.264 11.264-11.264h105.447c6.195 0 11.251 5.069 11.251 11.264v15.821c0 6.195-5.056 11.277-11.251 11.277h-105.447zM88.090 313.408c-6.208 0-11.264-5.069-11.264-11.277v-15.808c0-6.208 5.056-11.264 11.264-11.264h105.447c6.208 0 11.251 5.056 11.251 11.264v15.808c0 6.208-5.056 11.277-11.251 11.277h-105.447z" />
<glyph unicode="&#xe602;" d="M473.433 189.581v-28.454c0-43.93-18.406-86.247-50.291-116.352h2.227c12.403 0 22.528-10.125 22.528-22.541v-6.131c0-12.416-10.125-22.541-22.541-22.528-114.586 0.013-229.082 0.179-343.488 0.217-31.002 0-56.282 25.318-56.282 56.32 0 116.007 0 232 0 347.993 0 31.027 25.306 56.333 56.307 56.333h309.619c31.027 0 56.307-25.318 56.307-56.333v-15.347c0-31.027-25.293-56.333-56.307-56.333h-235.392c-15.513 0-28.16-12.647-28.16-28.16v-183.065c0-38.771 31.629-70.413 70.4-70.413h4.966c-31.872 30.233-50.279 72.294-50.279 116.352v28.454c0 12.416 10.112 22.541 22.515 22.541h6.605c12.416 0 22.528-10.125 22.528-22.541v-28.454c0-29.837 12.224-56.973 31.898-76.659 19.699-19.687 46.823-31.911 76.646-31.911 28.723 0 56.755 11.623 77.043 31.911 19.687 19.687 31.897 46.822 31.897 76.659v28.454c0 12.416 10.125 22.541 22.528 22.541h6.208c12.39-0.026 22.515-10.151 22.515-22.553v0zM294.323 120.217v71.065c-10.534-12.979-19.546-26.918-19.546-38.976 0-14.451 5.952-26.675 19.546-32.089v0zM372.173 414.707c-14.131 0-25.6-11.469-25.6-25.6 0-14.144 11.469-25.613 25.6-25.613s25.587 11.469 25.587 25.613c0 14.131-11.456 25.6-25.587 25.6v0zM332.659 191.322v-70.938c13.453 5.594 19.546 17.945 19.546 32.346 0.013 11.84-8.998 25.677-19.546 38.592v0zM332.659 262.4h21.555c9.319 0 16.896 7.591 16.896 16.909v4.749c0 9.318-7.591 16.909-16.896 16.909h-80.435c-9.305 0-16.896-7.603-16.896-16.909v-4.749c0-9.331 7.603-16.909 16.896-16.909h20.544v-12.198c-22.72-30.4-58.291-55.565-58.291-97.894 0-23.257 8.218-41.255 21.645-53.913 14.361-13.555 34.202-20.25 55.808-20.25 21.594 0 41.395 6.95 55.744 20.582 13.466 12.8 21.709 30.899 21.709 54.016 0 41.817-35.942 67.226-58.304 97.408v12.25z" />
<glyph unicode="&#xe603;" d="M395.801 223.923h-37.376v-7.654c0-31.040-25.293-56.358-56.307-56.358h-130.522c-31.014 0-56.307 25.305-56.307 56.333l-0.038 156.275c0 31.040 25.293 56.333 56.307 56.333h20.467v8.717c0 9.319 7.59 16.896 16.896 16.896h55.782c9.305 0 16.896-7.591 16.896-16.896v-8.717h20.48c29.299 0 53.209-22.656 55.808-51.303h37.913c21.709 0 39.424-17.715 39.424-39.437 0-24.909 0-49.843 0-74.752-0.013-21.721-17.715-39.437-39.424-39.437zM307.251 366.285c0 6.195-5.069 11.264-11.264 11.264h-118.246c-6.208 0-11.264-5.069-11.264-11.264v-143.897c0-6.195 5.069-11.264 11.264-11.264h118.246c6.195 0 11.264 5.069 11.264 11.264v143.897zM384.077 314.97c0 6.208-5.069 11.264-11.251 11.264h-14.425v-51.2h14.4c6.195 0 11.251 5.069 11.251 11.264v28.672zM171.609 134.31h130.509c31.027 0 56.32-25.305 56.32-56.333v-28.058c0-31.027-25.293-56.333-56.32-56.333h-130.509c-31.014 0-56.307 25.318-56.307 56.333v28.045c-0.013 31.053 25.28 56.346 56.307 56.346zM236.813 32.038c17.613 0 31.897 14.298 31.897 31.923 0 17.613-14.285 31.911-31.898 31.911s-31.898-14.298-31.898-31.911c0-17.625 14.285-31.923 31.898-31.923z" />
<glyph unicode="&#xe604;" d="M221.401 57.6h8.896v52.749c0 6.195 5.056 11.264 11.277 11.264h28.8c6.195 0 11.277-5.069 11.277-11.264v-52.749h8.896c7.027 0 13.056-2.24 18.381-6.81l26.906-23.168c6.375-5.491 9.753-12.736 9.805-21.133 0.026-2.931-1.331-5.478-3.776-7.104s-5.325-1.869-8-0.729l-11.303 4.864c-4.429 1.894-8.921 1.894-13.351 0l-16.397-7.065c-4.429-1.894-8.921-1.894-13.351 0l-16.397 7.065c-4.429 1.894-8.922 1.894-13.351 0l-16.397-7.065c-4.429-1.894-8.922-1.894-13.351 0l-16.397 7.065c-4.429 1.894-8.922 1.894-13.351 0l-11.303-4.864c-2.701-1.152-5.555-0.896-8 0.729s-3.802 4.16-3.776 7.104c0.051 8.397 3.405 15.654 9.779 21.133l26.931 23.168c5.299 4.57 10.535 6.81 17.549 6.81v0zM281.651 251.059c0-35.111-51.2-36.019-51.2 0 0 6.208-5.056 11.264-11.277 11.264-17.549 0-35.123 0-52.697 0l0.025 135.719c0 31.027 25.305 56.32 56.32 56.32h66.47c31.027 0 56.32-25.319 56.294-56.346l-0.026-135.693c-17.549 0-35.123 0-52.672 0-6.195 0-11.238-5.043-11.238-11.264v0zM256.051 390.451c-14.119 0-25.6-11.469-25.6-25.6s11.469-25.6 25.6-25.6c14.131 0 25.6 11.469 25.6 25.6s-11.481 25.6-25.6 25.6v0zM166.387 236.826l0.128-32.922c-0.102-15.603 5.376-29.069 16.346-40.141 10.97-11.046 24.371-16.653 39.975-16.653h66.393c31.027 0 56.346 25.331 56.32 56.371l-0.026 33.331h-33.702c-3.571 0-6.63-2.099-7.897-5.453-7.322-19.328-25.997-33.049-47.872-33.049-21.863 0-40.537 13.721-47.872 33.049-1.28 3.353-4.327 5.453-7.898 5.453h-33.894z" />
<glyph unicode="&#xe605;" d="M64.128 100.237v188.058h383.897v-188.058c0-24.768-16.103-45.875-38.349-53.389v-18.010c0-12.429-10.125-22.541-22.528-22.541h-6.144c-12.403 0-22.528 10.112-22.528 22.541v15.859h-204.749v-15.859c0-12.429-10.125-22.541-22.528-22.541h-6.144c-12.403 0-22.528 10.112-22.528 22.541v17.984c-22.297 7.514-38.4 28.647-38.4 53.414v0zM216.154 237.082c-6.221 0-11.277-5.069-11.277-11.277v-118.272c0-6.208 5.056-11.277 11.277-11.277h79.846c6.195 0 11.251 5.069 11.251 11.277v118.272c0 6.208-5.056 11.277-11.251 11.277h-79.846zM364.352 134.669c-10.599 0-19.2-8.601-19.2-19.213 0-10.586 8.601-19.2 19.2-19.2s19.2 8.615 19.2 19.2c0 10.624-8.601 19.213-19.2 19.213v0zM364.352 185.869c-10.599 0-19.2-8.589-19.2-19.2 0-10.599 8.601-19.2 19.2-19.2s19.2 8.601 19.2 19.2c0 10.624-8.601 19.2-19.2 19.2v0zM364.352 237.082c-10.599 0-19.2-8.601-19.2-19.2s8.601-19.2 19.2-19.2 19.2 8.601 19.2 19.2-8.601 19.2-19.2 19.2v0zM147.303 134.669c-10.599 0-19.2-8.601-19.2-19.213 0-10.586 8.601-19.2 19.2-19.2s19.2 8.615 19.2 19.2c0 10.624-8.601 19.213-19.2 19.213v0zM147.303 185.869c-10.599 0-19.2-8.589-19.2-19.2 0-10.599 8.601-19.2 19.2-19.2s19.2 8.601 19.2 19.2c0 10.624-8.601 19.2-19.2 19.2v0zM147.303 237.082c-10.599 0-19.2-8.601-19.2-19.2s8.601-19.2 19.2-19.2 19.2 8.601 19.2 19.2-8.601 19.2-19.2 19.2v0zM120.422 429.107h271.271c31.027 0 56.32-25.305 56.32-56.32v-59.251h-383.885v59.238c0 31.040 25.267 56.333 56.294 56.333z" />
<glyph unicode="&#xe606;" d="M426.483 211.149l-22.784-144.294c-4.352-27.597-27.699-47.552-55.629-47.552h-185.293c-27.929 0-51.264 19.955-55.629 47.552l-22.784 144.294c-1.063 6.861 4.211 13.030 11.136 13.030h33.063c5.542 0 10.189-3.943 11.111-9.408l5.389-32.384c0.922-5.466 5.568-9.395 11.111-9.395h198.49c5.555 0 10.202 3.942 11.111 9.395l5.401 32.384c0.909 5.478 5.555 9.408 11.111 9.408h33.063c6.925 0 12.211-6.195 11.136-13.030v0zM80.115 313.843h47.603c3.226 56.487 38.733 103.706 87.091 120.935 2.47 0.883 5.145 0 6.592-2.214 1.446-2.189 1.216-5.005-0.576-6.925-20.633-22.208-34.944-63.693-36.365-111.795h42.599c0.909 71.399 13.274 127.975 28.377 127.975 15.117 0 27.469-56.576 28.377-127.975h42.586c-1.408 48.115-15.719 89.587-36.365 111.795-1.792 1.92-2.035 4.736-0.576 6.925 1.447 2.214 4.109 3.097 6.592 2.214 48.358-17.241 83.853-64.448 87.104-120.935h47.591c23.257 0 42.227-18.982 42.227-42.253v-10.535c0-6.208-5.056-11.264-11.251-11.264h-412.582c-6.208 0-11.264 5.056-11.264 11.264v10.535c0 23.257 18.969 42.253 42.24 42.253z" />
<glyph unicode="&#xe607;" d="M94.848 454.438h316.595c20.173 0 36.595-16.461 36.595-36.621v-3.571c0-20.16-16.423-36.608-36.595-36.608h-165.568c-15.526 0-28.173-12.647-28.173-28.16v-250.816c0-15.514 12.647-28.173 28.173-28.173h165.581c20.173 0 36.595-16.435 36.595-36.608v-3.571c0-20.173-16.423-36.621-36.595-36.621-105.523 0-211.047 0-316.595 0-31.002 0-56.294 25.319-56.294 56.333 0 116.032 0 232.064 0 348.096-0.013 31.002 25.28 56.32 56.281 56.32v0zM422.451 224v8.806c0 9.319-7.577 16.896-16.87 16.896h-132.582c-9.331 0-16.896-7.59-16.896-16.896v-88.947c0-26.381 21.504-47.885 47.872-47.885h70.63c26.381 0 47.846 21.517 47.846 47.885v41.728h34.304c9.305 0 16.896 7.603 16.896 16.909v4.608c0 9.319-7.603 16.896-16.896 16.896h-34.304zM128.128 298.202c-15.501 0-28.045-12.57-28.045-28.071s12.544-28.070 28.045-28.070 28.071 12.57 28.071 28.070-12.57 28.071-28.071 28.071v0zM128.128 377.625c-15.501 0-28.045-12.57-28.045-28.070 0-15.513 12.544-28.070 28.045-28.070s28.071 12.557 28.071 28.070c0 15.501-12.57 28.070-28.071 28.070v0zM272.998 352.115c-9.331 0-16.896-7.577-16.896-16.883v-4.71c0-9.319 7.577-16.896 16.896-16.896h8.704v-21.082c0-9.331 7.629-16.909 16.87-16.909h4.621c9.255 0 16.87 7.642 16.87 16.909v21.082h38.4v-21.082c0-9.331 7.629-16.909 16.896-16.909h4.595c9.255 0 16.896 7.642 16.896 16.909v21.082h8.704c9.305 0 16.87 7.591 16.87 16.896v4.71c0 9.319-7.577 16.883-16.87 16.883h-132.557z" />
<glyph unicode="&#xe608;" d="M205.145 454.682c27.904 0 50.65-22.784 50.65-50.701v-39.424c0-27.917-22.745-50.688-50.649-50.688h-90.624c-27.904 0-50.675 22.771-50.675 50.688v39.424c0 27.917 22.771 50.701 50.675 50.701h90.624zM207.706 288.358c12.403 0 22.528-10.125 22.528-22.541v-28.774h-51.251v28.774c0 12.416 10.125 22.541 22.528 22.541h6.195zM308.954 209.613c21.555-4.288 40.87-14.963 55.846-29.952 19.75-19.75 32.026-47.027 32.026-77.031 0-28.864-11.648-56.653-32.026-77.031-15.053-15.079-34.496-25.805-56.205-30.029-3.878-0.768-7.629 1.178-9.28 4.749-1.677 3.571-0.704 7.693 2.381 10.151 3.456 2.752 6.745 5.696 9.869 8.819 21.351 21.351 34.547 50.854 34.547 83.43s-13.197 62.080-34.547 83.43c-3.021 3.021-6.221 5.888-9.549 8.576-3.072 2.471-4.019 6.592-2.381 10.151 1.69 3.584 5.466 5.504 9.318 4.736v0zM140.647 194.163v71.565c0 12.416-10.125 22.541-22.528 22.541h-6.093c-12.403 0-22.528-10.125-22.528-22.541v-162.803c-0.179-29.235 11.751-57.319 32.397-78.003 19.725-19.725 47.001-31.936 77.069-31.936 30.106 0 57.344 12.211 77.069 31.936 19.725 19.738 31.923 47.014 31.923 77.107s-12.199 57.357-31.923 77.094-46.976 31.936-77.069 31.936c0.013 0.013-22.439 5.888-58.317-16.896zM256.32 102.041c0-31.693-25.677-57.37-57.344-57.37s-57.344 25.69-57.344 57.37 25.677 57.37 57.344 57.37 57.344-25.69 57.344-57.37z" />
<glyph unicode="&#xe609;" d="M247.347 300.813h17.395c9.305 0 16.896-7.591 16.896-16.896v-21.517h34.291c9.305 0 16.896-7.59 16.896-16.896v-4.595c0-9.319-7.603-16.896-16.896-16.896h-119.769c-9.305 0-16.896 7.59-16.896 16.896v4.595c0 9.319 7.603 16.896 16.896 16.896h34.291v21.517c0 9.305 7.603 16.896 16.896 16.896v0zM120.409 454.438c-31.014 0-56.307-25.318-56.307-56.333v-335.257c0-31.027 25.305-56.32 56.307-56.32h271.181c31.027 0 56.32 25.305 56.32 56.32v335.257c0 31.027-25.305 56.333-56.32 56.333h-271.181zM126.541 326.413c-6.195 0-11.264-5.056-11.264-11.264v-246.31c0-6.195 5.069-11.264 11.264-11.264h259.021c6.195 0 11.264 5.069 11.264 11.264v246.31c0 6.208-5.069 11.264-11.264 11.264h-259.021zM294.899 416.026c14.221 0 25.753-11.533 25.753-25.754s-11.52-25.767-25.753-25.767-25.753 11.533-25.753 25.767c0 14.221 11.533 25.753 25.753 25.753v0zM217.817 416.026c14.221 0 25.741-11.533 25.741-25.754s-11.52-25.767-25.741-25.767-25.741 11.533-25.741 25.767c-0.013 14.221 11.52 25.753 25.741 25.753v0zM329.382 142.016c5.645 2.534 12.352 0 14.899-5.658l11.763-26.137c2.547-5.658 0.013-12.352-5.645-14.899l-2.791-1.267c-5.658-2.547-12.352-0.013-14.899 5.645l-11.763 26.137c-2.547 5.658-0.013 12.352 5.632 14.899l2.803 1.28zM302.759 201.152c5.658 2.534 12.352 0 14.899-5.645l11.776-26.151c2.534-5.658 0-12.352-5.645-14.899l-2.803-1.267c-5.658-2.534-12.352 0-14.887 5.645l-11.776 26.151c-2.547 5.645-0.013 12.352 5.645 14.899l2.791 1.267zM183.616 142.016l2.791-1.28c5.657-2.547 8.192-9.241 5.645-14.899l-11.763-26.137c-2.535-5.658-9.229-8.205-14.887-5.645l-2.803 1.267c-5.645 2.547-8.192 9.241-5.645 14.899l11.763 26.137c2.547 5.658 9.242 8.192 14.899 5.658v0zM210.227 201.152l2.791-1.267c5.671-2.547 8.205-9.255 5.645-14.899l-11.763-26.151c-2.547-5.645-9.229-8.192-14.887-5.645l-2.791 1.267c-5.657 2.547-8.205 9.241-5.645 14.899l11.763 26.151c2.535 5.645 9.229 8.179 14.887 5.645v0zM254.515 133.543h3.059c6.208 0 11.264-5.069 11.264-11.277v-28.672c0-6.195-5.069-11.264-11.264-11.264h-3.059c-6.208 0-11.264 5.069-11.264 11.264v28.672c0 6.208 5.056 11.277 11.264 11.277v0zM254.515 198.4h3.059c6.208 0 11.264-5.069 11.264-11.264v-28.685c0-6.195-5.069-11.264-11.264-11.264h-3.059c-6.208 0-11.264 5.069-11.264 11.264v28.685c0 6.195 5.056 11.264 11.264 11.264z" />
<glyph unicode="&#xe60a;" d="M447.654 214.003v-126.95c0-23.257-18.969-42.253-42.227-42.253-18.675 0-37.376 0-56.051 0-9.305 0-16.896 7.591-16.896 16.896v4.608c0 9.305 7.603 16.896 16.896 16.896h8.704v51.2h-24.294c-7.744 0-14.106 6.323-14.106 14.080v23.053c0 7.757 6.323 14.093 14.106 14.093h24.294v14.17c0 6.195-5.056 11.264-11.251 11.264h-79.872c-6.195 0-11.251-5.069-11.251-11.264v-42.855c0-12.416-10.125-22.541-22.528-22.541h-6.144c-12.403 0-22.528 10.125-22.528 22.541 0 67.584 0 135.181 0 202.765 0 31.040 25.305 56.333 56.32 56.346h168.921c31.002 0 56.294-25.319 56.294-56.346v-92.313c0.013-24.755-16.115-45.863-38.387-53.389v0zM306.906 339.251c-14.144 0-25.6-11.469-25.6-25.6 0-14.144 11.456-25.613 25.6-25.613 14.131 0 25.575 11.469 25.575 25.613 0 14.118-11.456 25.6-25.575 25.6v0zM35.072 339.251h56.832l14.823 24.73c5.197 8.678 14.003 13.671 24.153 13.671h25.677c12.377 0 22.528-10.125 22.528-22.541v-82.944c0-12.416-10.125-22.541-22.528-22.541h-25.677c-10.176 0-18.931 4.992-24.154 13.683l-14.823 24.73h-56.832c-12.403 0-22.528 10.112-22.528 22.541v6.131c0 12.416 10.125 22.541 22.528 22.541z" />
<glyph unicode="&#xe60b;" d="M241.664 173.069h15.872c6.195 0 11.251-5.069 11.251-11.277v-79.872c0-6.195-5.069-11.277-11.251-11.277h-15.872c-6.195 0-11.264 5.069-11.264 11.277v79.872c0 6.221 5.069 11.277 11.264 11.277v0zM473.498 270.413c0 31.027-25.305 56.32-56.307 56.32-119.705 0-239.399 0-359.079 0-10.855 0-19.712-8.845-19.712-19.712v-12.429c0-20.365 9.895-37.849 27.353-48.307l36.621-21.977c0-58.023 0-116.058 0-174.093 0-31.027 25.305-56.32 56.307-56.32h181.709c31.014 0 56.32 25.305 56.32 56.32 0 28.173 0 56.333 0 84.493h20.467c31.014 0 56.307 25.319 56.307 56.333 0.013 26.457 0.013 52.915 0.013 79.373v0zM203.174 275.533c-6.208 0-11.264-5.069-11.264-11.264v-207.949c0-6.195 5.056-11.277 11.264-11.277h92.749c6.195 0 11.264 5.069 11.264 11.277v207.949c0 6.195-5.069 11.264-11.264 11.264h-92.749zM220.058 454.759h58.969c15.501 0 28.16-12.647 28.16-28.173v-23.040h61.363c15.514 0 28.16-12.647 28.16-28.16v-23.040h-294.323v23.040c0 15.514 12.647 28.16 28.16 28.16h61.363v23.040c0 15.526 12.647 28.173 28.147 28.173v0zM422.361 197.133c0-6.208-5.069-11.264-11.264-11.264h-14.387v89.6h14.387c6.195 0 11.264-5.056 11.264-11.264v-67.072z" />
<glyph unicode="&#xe60c;" d="M319.923 157.478v-107.558c0-31.040-25.305-56.333-56.307-56.333h-40.947c-31.014 0-56.32 25.305-56.32 56.333v107.546c0 4.185 2.099 7.757 5.734 9.83 3.635 2.048 7.782 1.984 11.353-0.179 17.459-10.56 37.747-16.154 59.699-16.154s42.24 5.606 59.687 16.154c3.571 2.163 7.731 2.227 11.366 0.179 3.635-2.061 5.735-5.632 5.735-9.817v0zM324.519 223.552l52.685 83.673c40.103 63.68-6.131 147.469-81.37 147.469h-105.37c-75.264 0-121.498-83.776-81.395-147.469l52.685-83.673c37.555-59.635 125.222-59.648 162.765 0v0zM339.328 387.341c12.659-21.952 5.133-50.023-16.807-62.695-21.952-12.672-50.010-5.159-62.682 16.793-12.672 21.965-5.145 50.035 16.793 62.707 21.939 12.647 50.022 5.146 62.695-16.806v0zM282.829 290.841c12.672-21.952 5.146-50.023-16.806-62.695-21.939-12.672-50.010-5.146-62.669 16.806-12.672 21.952-5.145 50.035 16.793 62.695 21.939 12.672 49.997 5.145 62.682-16.807v0zM226.329 387.341c12.672-21.952 5.145-50.023-16.793-62.695-21.952-12.672-50.010-5.159-62.681 16.793-12.672 21.965-5.145 50.035 16.793 62.707 21.952 12.647 50.010 5.146 62.681-16.806v0zM221.005 61.478c7.053-12.224 22.681-16.409 34.906-9.344 12.224 7.053 16.409 22.669 9.357 34.906-7.065 12.237-22.681 16.409-34.906 9.357-12.224-7.065-16.41-22.695-9.357-34.918z" />
<glyph unicode="&#xe60d;" d="M262.183 454.285c95.385 0 172.762-77.389 172.762-172.826s-77.363-172.813-172.762-172.813c-95.411 0-172.774 77.376-172.774 172.813s77.363 172.825 172.774 172.825v0zM241.395 83.034h41.561c6.208 0 11.264-5.069 11.264-11.264v-27.149h41.459c12.416 0 22.528-10.125 22.528-22.541v-6.131c0-12.416-10.125-22.541-22.528-22.541h-146.905c-12.403 0-22.528 10.125-22.528 22.541v6.131c0 12.416 10.125 22.541 22.528 22.541h41.357v27.149c0 6.195 5.056 11.264 11.264 11.264v0zM306.074 288.128c-12.262 0.666-20.697 15.296-15.194 26.266 7.731 15.385 12.544 35.225 12.544 51.392 0 31.245-17.984 45.146-40.141 45.146-22.169 0-40.141-13.901-40.141-45.146 0-16.166 4.813-36.019 12.544-51.405 5.478-10.905-2.88-25.523-15.065-26.304-17.037-1.088-36.339-6.81-50.176-14.797-27.047-15.616-30.106-38.144-19.008-57.344 11.072-19.2 32.115-27.827 59.161-12.199 14.221 8.217 29.248 22.656 38.669 37.261 6.643 10.304 22.425 10.343 29.082 0.013 9.421-14.631 24.448-29.069 38.669-37.274 27.046-15.616 48.064-7.002 59.161 12.199s8.026 41.741-19.008 57.357c-14.118 8.115-33.856 13.901-51.098 14.835z" />
<glyph unicode="&#xe60e;" d="M249.549 454.733c74.201 0 134.374-60.199 134.374-134.413 0-74.24-60.173-134.425-134.375-134.425-74.189 0-134.362 60.185-134.362 134.425 0 74.214 60.16 134.413 134.362 134.413v0zM228.762 160.295h41.575c6.195 0 11.264-5.069 11.264-11.277v-104h15.859c12.403 0 22.528-10.125 22.528-22.541v-6.093c0-12.416-10.125-22.541-22.528-22.541h-95.821c-12.403 0-22.528 10.125-22.528 22.541v6.093c0 12.416 10.125 22.541 22.528 22.541h15.859v104c0 6.208 5.069 11.277 11.264 11.277v0zM282.726 325.543c-8.423 0.358-15.181 12.096-11.303 19.584 6.247 12.058 10.176 27.904 10.176 40.768 0 24.294-13.99 35.111-31.232 35.111s-31.219-10.816-31.219-35.111c0-12.877 3.917-28.723 10.176-40.793 3.853-7.437-2.829-19.174-11.213-19.597-13.465-0.704-28.928-5.184-39.962-11.559-21.030-12.135-23.399-29.657-14.784-44.595 8.627-14.938 24.986-21.645 46.016-9.498 11.315 6.541 23.257 18.112 30.554 29.735 4.518 7.193 17.127 7.245 21.657 0.038 7.283-11.648 19.251-23.232 30.579-29.76 21.031-12.16 37.389-5.453 46.016 9.485 8.615 14.938 6.233 32.461-14.797 44.595-11.226 6.477-27.034 11.034-40.666 11.597z" />
<glyph unicode="&#xe60f;" d="M319.693 64.691v-48.743c0-12.416-10.112-22.541-22.515-22.541h-70.233c-12.403 0-22.528 10.125-22.528 22.541v48.743c0 7.142 6.618 12.519 13.607 11.021 14.195-3.021 28.928-4.608 44.032-4.608s29.837 1.587 44.032 4.608c6.989 1.485 13.606-3.891 13.606-11.021v0zM262.067 454.72c95.399 0 172.762-77.389 172.762-172.826s-77.363-172.826-172.762-172.826-172.762 77.389-172.762 172.826 77.363 172.825 172.762 172.825v0zM262.067 403.072c-66.893 0-121.139-54.259-121.139-121.178s54.246-121.19 121.139-121.19c66.893 0 121.139 54.272 121.139 121.19s-54.259 121.178-121.139 121.178z" />
<glyph unicode="&#xe610;" d="M194.406 326.413c88.743 0 89.575 0 196.992 0 31.027 0 56.32 25.318 56.32 56.333v15.36c0 31.027-25.305 56.333-56.32 56.333h-296.87c-31.027 0-56.294-25.319-56.294-56.333v-348.058c0-31.027 25.28-56.32 56.294-56.32 112.921 0 219.763 0 331.341 0 12.403 0 22.528 10.112 22.528 22.528v5.99c0 12.416-10.125 22.541-22.528 22.541h-49.779c46.528 0 84.48 37.965 84.48 84.505v57.843c0 6.195-5.069 11.264-11.277 11.264h-246.183c-6.195 0-11.277-5.069-11.277-11.264v-57.856c0-46.541 37.952-84.505 84.467-84.505h-39.719c-38.745 0-70.4 31.642-70.4 70.413l0.051 183.065c0 15.514 12.647 28.173 28.173 28.16v0zM372.045 414.707c14.131 0 25.6-11.469 25.6-25.6 0-14.144-11.469-25.613-25.6-25.613s-25.6 11.469-25.6 25.613c0 14.131 11.481 25.6 25.6 25.6v0zM285.504 300.813h81.395c9.305 0 16.87-7.591 16.87-16.896v-4.595c0-9.331-7.577-16.909-16.87-16.909h-21.504v-21.504c0-9.319-7.603-16.896-16.896-16.896h-4.595c-9.305 0-16.896 7.59-16.896 16.896v21.491h-21.504c-9.305 0-16.87 7.591-16.87 16.909v4.595c-0.013 9.318 7.565 16.909 16.87 16.909z" />
<glyph unicode="&#xe611;" d="M81.907 300.736h79.335c31.014 0 56.307-25.318 56.307-56.32v-73.229c0-6.195 5.069-11.264 11.264-11.264h3.072c6.195 0 11.264 5.069 11.264 11.264v129.651h51.2v-129.651c0-6.195 5.056-11.264 11.264-11.264h39.872v38.502h-25.6v15.859c0 12.416 10.125 22.541 22.528 22.541 22.361 0 44.711 0 67.059 0v-15.859c0-12.416-10.112-22.541-22.528-22.541h-3.072v-38.502h39.974c6.208 0 11.264 5.069 11.264 11.264v129.651h51.2c0-58.112-0.064-116.185-0.089-174.221-0.013-31.027-25.305-56.307-56.32-56.307h-347.993c-31.014-0.013-56.307 25.305-56.307 56.333 0 39.245 0 78.515 0 117.773 0 31.015 25.293 56.32 56.307 56.32v0zM276.825 377.549h175.667c18.611 0 33.792-15.193 33.792-33.805v-17.319h-243.238v17.319c0 18.624 15.181 33.805 33.779 33.805v0zM121.575 242.931c-21.094 0-38.195-17.101-38.195-38.195s17.101-38.208 38.195-38.208c21.082 0 38.195 17.113 38.195 38.208s-17.101 38.195-38.195 38.195z" />
<glyph unicode="&#xe612;" d="M25.472 102.195v231.808c0 31.040 25.28 56.333 56.295 56.333h71.654v8.96c0 23.257 18.97 42.253 42.253 42.253h120.294c23.245 0 42.202-18.982 42.202-42.253v-8.96h71.603c31.027 0 56.32-25.306 56.32-56.333v-231.808c0-24.743-16.103-45.837-38.323-53.376v-19.993c0-12.429-10.125-22.541-22.528-22.541h-6.144c-12.403 0-22.528 10.112-22.528 22.541v15.821h-281.523v-15.821c0-12.429-10.125-22.541-22.528-22.541h-6.144c-12.403 0-22.528 10.112-22.528 22.541v19.968c-22.272 7.526-38.374 28.647-38.374 53.401v0zM137.575 287.859c-12.403 0-22.528-10.125-22.528-22.541v-30.937c0-6.195 5.056-11.264 11.251-11.264h3.072c6.169 0 11.277 5.107 11.277 11.264v16.205c0 6.144 5.095 11.264 11.251 11.264h3.072c6.144 0 11.251-5.069 11.251-11.264v-16.205c0-6.195 5.12-11.264 11.277-11.264h3.072c6.144 0 11.251 5.107 11.251 11.264v16.205c0 6.144 5.095 11.264 11.277 11.264h3.072c6.144 0 11.251-5.069 11.251-11.264v-16.205c0-6.195 5.095-11.264 11.277-11.264h3.047c6.169 0 11.277 5.107 11.277 11.264v16.205c0 6.144 5.095 11.264 11.251 11.264h3.072c6.144 0 11.277-5.069 11.277-11.264v-16.205c0-6.195 5.094-11.264 11.251-11.264h3.072c6.144 0 11.251 5.107 11.251 11.264v16.205c0 6.144 5.094 11.264 11.277 11.264h3.072c6.144 0 11.251-5.069 11.251-11.264v-16.205c0-6.195 5.094-11.264 11.277-11.264h3.046c6.17 0 11.277 5.107 11.277 11.264v16.205c0 6.144 5.094 11.264 11.251 11.264h3.072c6.17 0 11.277-5.069 11.277-11.264v-16.205c0-6.195 5.094-11.264 11.251-11.264h3.072c6.195 0 11.251 5.069 11.251 11.264v30.938c0 12.416-10.099 22.541-22.528 22.541h-92.672v14.336c0 6.195-5.056 11.264-11.251 11.264h-28.672c-6.195 0-11.251-5.069-11.251-11.264v-14.336h-92.621zM371.072 193.305c-21.197 0-38.4-17.203-38.4-38.413 0-21.197 17.203-38.4 38.4-38.4s38.4 17.203 38.4 38.4c0 21.209-17.203 38.413-38.4 38.413v0zM140.697 193.305c-21.197 0-38.4-17.203-38.4-38.413 0-21.197 17.203-38.4 38.4-38.4s38.4 17.203 38.4 38.4c0 21.209-17.203 38.413-38.4 38.413v0zM256.103 193.305c-21.222 0-38.4-17.203-38.4-38.413 0-21.197 17.178-38.4 38.4-38.4 21.171 0 38.375 17.203 38.375 38.4 0 21.209-17.203 38.413-38.375 38.413v0zM87.872 339.149c-6.195 0-11.251-5.069-11.251-11.277v-220.377c0-6.208 5.056-11.277 11.251-11.277h335.808c6.195 0 11.277 5.069 11.277 11.277v220.377c0 6.195-5.069 11.277-11.277 11.277h-335.808z" />
<glyph unicode="&#xe613;" d="M120.192 441.639h97.203v-435.264h-97.203c-31.014 0-56.307 25.305-56.307 56.32v322.611c-0.013 31.014 25.28 56.333 56.307 56.333v0zM242.97 441.639h148.506c31.014 0 56.307-25.319 56.307-56.333v-322.599c0-31.027-25.293-56.32-56.307-56.32h-148.506v435.251zM321.088 352.025c-7.757 0-14.080-6.323-14.080-14.093v-61.453c0-7.744 6.323-14.093 14.080-14.093h48.627c7.757 0 14.080 6.336 14.080 14.093v61.453c0 7.757-6.323 14.093-14.080 14.093h-48.627z" />
<glyph unicode="&#xe614;" d="M159.181 160.077h23.373c3.123 0 5.798-1.575 7.321-4.275 1.549-2.714 1.523-5.811-0.077-8.499l-35.52-59.789c-1.344-2.279-4.019-3.303-6.528-2.496-15.603 4.889-26.969 19.507-26.969 36.647 0 21.017 17.37 38.413 38.4 38.413v0zM94.809 428.685h46.080v-229.721h-46.080c-31.002 0-56.294 25.331-56.294 56.346v117.043c-0.013 31.027 25.293 56.333 56.294 56.333v0zM166.477 428.685v-229.721h79.975l-89.242-150.17c-11.097-18.675 2.47-42.56 24.205-42.56h62.439c10.227 0 18.97 4.992 24.205 13.76l106.381 178.969c54.298 0 99.174 44.007 99.174 98.599v32.525c0 54.297-44.275 98.598-98.547 98.598h-208.589z" />
<glyph unicode="&#xe615;" d="M378.726 454.272c31.027 0 56.307-25.293 56.307-56.32v-245.786c0-31.027-25.293-56.333-56.294-56.333h-258.599c-31.014 0-56.307 25.318-56.307 56.333v245.786c0 31.040 25.293 56.32 56.307 56.32h258.586zM203.059 70.221h92.647c6.208 0 11.277-5.056 11.277-11.277v-14.323h67.046c12.403 0 22.528-10.125 22.528-22.541v-6.093c0-12.416-10.125-22.541-22.528-22.541h-249.293c-12.403 0-22.528 10.125-22.528 22.541v6.093c0 12.416 10.125 22.541 22.528 22.541h67.059v14.323c0 6.233 5.056 11.277 11.264 11.277v0zM115.111 391.808v-233.51c0-6.195 5.069-11.264 11.264-11.264h15.872c6.195 0 11.264 5.069 11.264 11.264v233.51c0 6.195-5.069 11.264-11.264 11.264h-15.872c0 0-11.264-0.205-11.264-11.264zM345.459 391.808v-233.51c0-6.195 5.069-11.264 11.264-11.264h15.859c6.208 0 11.264 5.069 11.264 11.264v233.51c0 6.195-5.056 11.264-11.264 11.264h-15.859c0 0-11.264-0.205-11.264-11.264zM268.685 391.808v-233.51c-0.013-6.195 5.056-11.264 11.251-11.264h15.872c6.195 0 11.264 5.069 11.264 11.264v233.51c0 6.195-5.069 11.264-11.264 11.264h-15.859c0 0-11.264-0.205-11.264-11.264zM203.161 403.072c-6.195 0-11.251-5.069-11.251-11.264v-233.51c0-6.195 5.056-11.264 11.251-11.264h15.872c6.195 0 11.264 5.069 11.264 11.264v233.51c0 6.195-5.069 11.264-11.264 11.264h-15.872z" />
<glyph unicode="&#xe616;" d="M275.251 367.693c0-10.611-8.601-19.2-19.2-19.2s-19.2 8.589-19.2 19.2 8.601 19.2 19.2 19.2c0 0 19.2-0.359 19.2-19.2zM155.2 44.928c6.195 0 11.277 5.069 11.277 11.277v7.616c0 10.867 8.845 19.725 19.699 19.725h11.827c10.855 0 19.699-8.858 19.699-19.725 0-7.36 0-14.733 0-22.118 0-26.368-21.504-47.872-47.846-47.872h-60.403c-10.88 0-19.699 8.845-19.699 19.712v11.673c0 10.854 8.819 19.712 19.699 19.712h45.747zM356.902 44.928h45.849c10.854 0 19.699-8.858 19.699-19.712v-11.673c0-10.867-8.845-19.712-19.699-19.712h-60.403c-26.355 0-47.846 21.517-47.846 47.872 0 7.373 0 14.745 0 22.118 0 10.867 8.845 19.725 19.699 19.725h11.725c10.854 0 19.699-8.858 19.699-19.725v-7.616c0-6.221 5.043-11.277 11.277-11.277v0zM207.795 253.465l76.006-67.609h50.522c11.098 0 20.045 9.241 19.699 20.352-1.702 52.659-44.928 94.861-97.971 94.861s-96.294-42.202-97.971-94.861c-0.345-11.111 8.601-20.352 19.699-20.352h54.822l-29.222 64.333c-0.576 1.229-0.205 2.637 0.87 3.443 1.101 0.793 2.547 0.73 3.546-0.167v0zM89.626 165.478c0-31.040 25.305-56.333 56.32-56.333 75.456 0 144.755 0 220.198 0 31.027 0 56.294 25.305 56.294 56.333v220.173c0 31.040-25.28 56.333-56.294 56.333h-220.198c-31.027 0-56.32-25.305-56.32-56.333v-220.173z" />
<glyph unicode="&#xe617;" d="M138.419 237.069h272.807c6.208-0.013 11.277 5.056 11.277 11.264v92.672c0 6.208-5.069 11.277-11.264 11.277h-200.896c-17.063 0-30.976 13.913-30.976 30.989v2.048c0 17.063 13.913 30.989 30.976 30.989h219.827c31.027 0 56.32-25.305 56.32-56.333 0-90.445 0-180.928 0-271.385 0-31.027-25.305-56.333-56.307-56.333h-348.058c-31.027 0-56.32 25.318-56.32 56.333v35.827c0 62.041 50.599 112.653 112.614 112.653v0zM335.846 159.155c-14.221 0-25.753-11.546-25.753-25.779s11.52-25.753 25.753-25.753 25.753 11.52 25.753 25.753-11.52 25.779-25.753 25.779v0zM181.671 159.155c-14.221 0-25.754-11.546-25.754-25.779s11.533-25.753 25.754-25.753 25.754 11.52 25.754 25.753-11.533 25.779-25.754 25.779v0zM258.765 159.155c-14.221 0-25.754-11.546-25.754-25.779s11.533-25.753 25.754-25.753c14.221 0 25.753 11.52 25.753 25.753s-11.533 25.779-25.753 25.779v0zM247.45 301.069c-9.305 0-16.896-7.59-16.896-16.896v-4.595c0-9.305 7.59-16.896 16.896-16.896h94.183c9.305 0 16.883 7.603 16.883 16.896v4.608c0 9.305-7.591 16.883-16.883 16.883h-94.183z" />
<glyph unicode="&#xe618;" d="M306.854 275.136v-25.6h64.537c27.917 0 50.675-22.784 50.675-50.714v-12.019c0-7.757-6.323-14.080-14.080-14.080h-23.040c-7.757 0-14.080 6.31-14.080 14.080v0.256c0 6.208-5.056 11.277-11.251 11.277h-52.774v-135.59c0-31.040-25.293-56.346-56.307-56.346h-143.321c-31.014 0-56.307 25.318-56.307 56.346v212.39h-0.256c-33.485 0-33.498 51.303 0 51.303h256.461c33.498 0 33.498-51.303 0-51.303h-0.256zM126.464 272.179c-14.131 0-25.6-11.469-25.6-25.613s11.469-25.6 25.6-25.6c14.131 0 25.587 11.469 25.587 25.6s-11.469 25.613-25.587 25.613v0zM346.573 147.226c-7.757 0-14.080-6.336-14.080-14.093v-84.493c0-23.27 18.969-42.265 42.24-42.265h43.495c23.257 0 42.227 18.983 42.227 42.265v84.493c0 7.744-6.323 14.080-14.080 14.080l-99.802 0.013zM101.799 454.361c51.379 0 102.784 0 154.163 0 33.498 0 33.498-51.303 0-51.303h-13.056v-51.213h-128.064v51.213h-13.056c-33.485 0-33.485 51.303 0.013 51.303z" />
<glyph unicode="&#xe619;" d="M312.729 441.869c10.854 0 19.699-8.845 19.699-19.712v-19.827c0-7.744 2.752-14.425 8.256-19.917l21.901-21.901c5.478-5.491 8.256-12.16 8.256-19.93v-19.827c0-10.854-8.845-19.712-19.699-19.712h-190.963c-10.855 0-19.699 8.858-19.699 19.712v19.827c0 7.757 2.778 14.439 8.256 19.93l21.901 21.901c5.478 5.491 8.231 12.16 8.231 19.917v19.827c0 10.867 8.87 19.712 19.725 19.712h114.138zM429.619 275.456c31.027 0 56.32-25.306 56.32-56.32v-66.663c0-31.027-25.305-56.32-56.32-56.32h-348.058c-31.002 0-56.307 25.293-56.307 56.32v66.663c0 31.027 25.305 56.32 56.307 56.32h348.058zM76.48 212.877v-54.259c0-6.208 5.069-11.264 11.277-11.264h15.872c6.195-0.013 11.251 5.056 11.251 11.264v54.259c0 6.208-5.056 11.277-11.251 11.277h-15.872c0 0-11.277-0.217-11.277-11.277zM409.229 211.353c-14.144 0-25.6-11.469-25.6-25.613 0-14.131 11.456-25.6 25.6-25.6 14.131 0 25.575 11.469 25.575 25.6s-11.456 25.613-25.575 25.613v0zM306.829 212.877v-54.259c0-6.208 5.069-11.264 11.277-11.264h15.872c6.195 0 11.251 5.056 11.251 11.264v54.259c0 6.208-5.056 11.277-11.251 11.277h-15.872c0 0-11.277-0.217-11.277-11.277zM230.054 212.877v-54.259c0-6.208 5.056-11.264 11.277-11.264h15.847c6.195 0 11.277 5.056 11.277 11.264v54.259c0 6.208-5.069 11.277-11.277 11.277h-15.846c0 0-11.277-0.217-11.277-11.277zM164.531 224.154c-6.195 0-11.251-5.069-11.251-11.277v-54.259c0-6.208 5.056-11.264 11.251-11.264h15.872c6.195 0 11.251 5.056 11.251 11.264v54.259c0 6.208-5.056 11.277-11.251 11.277h-15.872z" />
<glyph unicode="&#xe61a;" d="M315.353 292.839l144.87-144.883c8.781-8.793 13.197-19.469 13.197-31.872v-25.971c0-24.819-20.224-45.069-45.056-45.069h-357.786c-24.806 0-45.056 20.25-45.056 45.069v25.971c0 12.416 4.429 23.091 13.197 31.872l144.921 144.96c5.478 5.478 12.147 8.256 19.929 8.256l91.904-0.089c7.731-0.013 14.4-2.777 19.878-8.243v0zM211.648 454.682h75.751c10.88 0 19.725-8.845 19.725-19.712v-88.589c0-10.867-8.845-19.725-19.725-19.725h-75.75c-10.855 0-19.699 8.858-19.699 19.725v88.589c0 10.867 8.857 19.712 19.699 19.712z" />
<glyph unicode="&#xe61b;" d="M262.055 454.618c73.894 0 170.662-112.435 184-227.635 0.96-8.333-5.606-15.705-13.99-15.705h-34.112c-7.757 0-14.080 6.323-14.080 14.093v23.155c0 7.731-6.323 14.080-14.080 14.080h-10.483c-7.744 0-14.080-6.336-14.080-14.080v-23.155c0-7.757-6.323-14.093-14.080-14.093h-35.84c-7.744 0-14.067 6.323-14.067 14.093v23.001c0 7.757-6.323 14.106-14.080 14.106h-10.24c-7.757 0-14.080-6.336-14.080-14.106v-23.001c0-7.757-6.323-14.093-14.080-14.093h-35.84c-7.757 0-14.080 6.323-14.080 14.093v21.542c0 7.731-6.323 14.080-14.080 14.080h-10.393c-7.744 0-14.080-6.336-14.080-14.080v-21.555c0-7.757-6.323-14.093-14.080-14.093h-34.163c-8.397 0-14.963 7.36-13.99 15.706 13.338 115.2 110.106 227.648 184 227.648v0zM445.798 169.882c-12.634-104.576-90.099-163.456-183.731-163.456s-171.097 58.88-183.731 163.456c-1.011 8.371 5.555 15.783 13.977 15.783h339.52c8.409 0.013 14.976-7.399 13.965-15.783v0zM253.453 148.070l-35.047-46.681c-5.542-7.373-0.218-18.035 9.011-18.035h70.093c9.216 0 14.541 10.663 9.011 18.035l-35.046 46.682c-4.505 5.99-13.529 5.978-18.023 0v0zM285.401 388.454c17.063 0 17.024 21.107-0.423 21.107h-38.515c-9.305 0-13.363-4.775-14.797-13.607l-6.131-34.969c-1.344-7.654 0.333-15.744 10.266-15.744 9.267 0 14.528 10.739 25.088 10.739 11.149 0 16.384-9.625 16.384-19.84 0-9.869-5.274-20.531-16.678-20.531-8.025 0-14.029 5.517-17.165 12.531-4.365 10.279-21.222 11.315-21.222-1.702 0-10.035 7.821-18.905 15.898-23.693 12.352-7.296 31.463-6.784 43.789 0.281 12.57 7.219 19.43 20.416 19.43 34.777 0 9.664-3.623 19.149-10.445 26.023-6.707 6.759-15.654 10.483-25.178 10.483-5.696 0-11.315-1.664-16.461-4.019l3.187 18.151h32.973z" />
<glyph unicode="&#xe61c;" d="M145.6 441.587h220.096c31.027 0 56.32-25.305 56.32-56.333v-322.586c0-31.040-25.305-56.346-56.32-56.346h-220.096c-31.027 0-56.294 25.318-56.294 56.346v322.586c0 31.027 25.267 56.333 56.294 56.333v0zM255.45 166.528c-21.325 0-38.63-17.305-38.63-38.63s17.305-38.618 38.63-38.618c21.299 0 38.605 17.293 38.605 38.618s-17.305 38.63-38.605 38.63v0zM255.655 390.106c-63.603 0-115.174-52.429-115.174-117.056 0-7.846 0.781-15.513 2.227-22.938 1.549-8 8.397-13.235 16.576-13.235h67.546l-39.821 87.232c-1.369 3.046 2.048 5.414 4.454 3.277l102.169-90.509h58.419c8.154 0 15.002 5.235 16.55 13.235 1.447 7.424 2.227 15.091 2.227 22.938 0 64.627-51.584 117.056-115.174 117.056z" />
<glyph unicode="&#xe61d;" d="M81.626 390.822h348.185c31.002 0 56.307-25.305 56.307-56.333v-207.078c0-31.027-25.305-56.333-56.307-56.333h-348.185c-31.014 0-56.307 25.318-56.307 56.333v207.078c0 31.040 25.293 56.333 56.307 56.333v0zM113.459 314.010c-6.195 0-11.264-5.069-11.264-11.264v-3.072c0-6.195 5.069-11.264 11.264-11.264h207.821c6.195 0 11.264 5.069 11.264 11.264v3.072c0 6.195-5.069 11.264-11.264 11.264h-207.821zM393.255 149.235c0-15.053 12.199-27.251 27.238-27.251 15.027 0 27.226 12.199 27.226 27.251 0 15.040-12.199 27.238-27.226 27.238-15.040 0-27.238-12.199-27.238-27.238v0zM87.872 339.623c-6.208 0-11.264-5.069-11.264-11.277v-195.097c0-6.195 5.056-11.264 11.264-11.264h259.008c6.208 0 11.277 5.069 11.277 11.264v195.097c0 6.208-5.069 11.277-11.277 11.277h-259.008zM393.255 312.371c0-15.053 12.199-27.251 27.238-27.251 15.027 0 27.226 12.198 27.226 27.251 0 15.040-12.199 27.251-27.226 27.251-15.040 0-27.238-12.211-27.238-27.251v0zM393.255 230.797c0-15.053 12.199-27.239 27.238-27.239 15.027 0 27.226 12.185 27.226 27.238 0 15.040-12.199 27.251-27.226 27.251-15.040 0-27.238-12.211-27.238-27.251z" />
<glyph unicode="&#xe61e;" d="M391.411 441.664c31.027 0 56.307-25.318 56.307-56.333v-66.56c0-31.027-25.293-56.32-56.307-56.32h-112.32c-15.514 0-28.851-5.543-39.808-16.512l-31.001-31.002c-10.957-10.969-24.307-16.499-39.821-16.499h-61.133c-31.014 0-56.307 25.305-56.307 56.333v130.56c0 31.027 25.305 56.333 56.307 56.333h284.083zM370.931 390.349c-14.131 0-25.587-11.469-25.587-25.6s11.469-25.6 25.587-25.6c14.131 0 25.6 11.469 25.6 25.6s-11.456 25.6-25.6 25.6v0zM102.195 379.085v-54.285c0-6.195 5.069-11.264 11.264-11.264h169.433c6.195 0 11.264 5.069 11.264 11.264v54.285c0 6.195-5.069 11.264-11.264 11.264h-169.434c0 0-11.264-0.217-11.264-11.264zM331.175 236.826c-6.195 0-11.264-5.069-11.264-11.264v-25.575c-30.349-35.481-83.507-66.010-83.507-118.81 0-27.801 11.2-49.011 29.529-63.705 18.816-15.117 44.825-22.579 73.19-22.579 28.301 0 54.221 7.731 72.973 22.887 18.432 14.912 29.721 36.313 29.721 63.897 0 52.493-53.299 82.995-83.507 118.298v25.575c0 6.195-5.069 11.264-11.264 11.264l-15.872 0.013zM358.298 145.92c21.043-20.007 44.774-44.262 44.774-64.243 0-27.123-20.224-41.869-44.774-46.361v110.605zM319.911 35.238c-24.691 4.327-44.774 18.637-44.774 45.939 0 20.301 23.731 44.685 44.774 64.717v-110.656z" />
<glyph unicode="&#xe61f;" d="M115.225 326.541h268.749v50.074c0 9.305-3.315 17.305-9.894 23.885l-44.199 44.198c-6.579 6.592-14.592 9.907-23.897 9.907l-148.531-0.026c-23.257-0.013-42.227-18.995-42.227-42.253v-85.786zM345.575 147.366h38.4v-91.149c0-6.195-5.069-11.264-11.264-11.264h-15.872c-6.195 0-11.264 5.069-11.264 11.264v91.149zM268.8 147.366h38.4v-103.949c0-6.195-5.069-11.264-11.264-11.264h-15.872c-6.195 0-11.264 5.069-11.264 11.264v103.949zM192 147.366h38.4v-129.549c0-6.208-5.056-11.277-11.251-11.277h-15.872c-6.195 0-11.264 5.069-11.264 11.277v129.549h-0.013zM115.225 147.366h38.4v-65.536c0-6.208-5.056-11.277-11.264-11.277h-15.872c-6.208 0-11.264 5.069-11.264 11.277v65.536zM94.758 300.992c103.219 0 206.451 0 309.67 0 31.014 0 56.307-25.318 56.307-56.333v-15.347c0-31.015-25.305-56.32-56.307-56.32h-309.671c-31.014 0-56.32 25.305-56.32 56.32v15.36c0 31.014 25.306 56.32 56.32 56.32v0zM358.375 262.336c-14.131 0-25.6-11.469-25.6-25.6s11.469-25.613 25.6-25.613 25.6 11.469 25.6 25.613-11.469 25.6-25.6 25.6z" />
<glyph unicode="&#xe620;" d="M416.986 390.272c31.027 0 56.32-25.305 56.32-56.32v-207.385c0-24.768-16.115-45.875-38.387-53.401v-18.918c0-12.416-10.125-22.528-22.528-22.528h-6.144c-12.39 0-22.515 10.112-22.515 22.528v15.974h-268.685v-15.859c0-12.416-10.125-22.541-22.528-22.541h-6.183c-12.416 0-22.528 10.125-22.528 22.541v18.803c-22.285 7.514-38.4 28.634-38.4 53.401v207.385c0 31.027 25.305 56.32 56.307 56.32h335.271zM153.382 327.795v-195.097c0-6.195 5.069-11.264 11.264-11.264h15.911c6.208 0 11.277 5.069 11.277 11.264v195.097c0 6.195-5.069 11.264-11.277 11.264h-15.911c0 0-11.264-0.205-11.264-11.264zM89.395 172.647c-14.131 0-25.587-11.469-25.587-25.613 0-14.131 11.469-25.6 25.587-25.6 14.131 0 25.6 11.469 25.6 25.6 0 14.144-11.456 25.613-25.6 25.613v0zM89.395 255.859c-14.131 0-25.587-11.469-25.587-25.613 0-14.131 11.469-25.6 25.587-25.6 14.131 0 25.6 11.469 25.6 25.6 0 14.144-11.456 25.613-25.6 25.613v0zM89.395 339.059c-14.131 0-25.587-11.456-25.587-25.6 0-14.131 11.469-25.6 25.587-25.6 14.131 0 25.6 11.469 25.6 25.6 0 14.157-11.456 25.6-25.6 25.6v0zM394.995 339.059c-6.195 0-11.264-5.069-11.264-11.264v-195.097c0-6.195 5.069-11.264 11.264-11.264h15.911c6.208 0 11.264 5.069 11.264 11.264v195.097c0 6.195-5.056 11.264-11.264 11.264h-15.911zM318.208 339.059c-6.195 0-11.264-5.069-11.264-11.264v-195.097c0-6.195 5.069-11.264 11.264-11.264h15.923c6.195 0 11.264 5.069 11.264 11.264v195.097c0 6.195-5.069 11.264-11.264 11.264h-15.923zM241.421 339.059c-6.183 0-11.264-5.069-11.264-11.264v-195.097c0-6.195 5.069-11.264 11.264-11.264h15.923c6.208 0 11.264 5.069 11.264 11.264v195.097c0 6.195-5.056 11.264-11.264 11.264h-15.923z" />
<glyph unicode="&#xe621;" d="M102.041 211.353h307.226v-148.506c0-31.027-25.293-56.32-56.307-56.32h-194.599c-31.014 0-56.307 25.305-56.307 56.32v148.505h-0.013zM151.795 172.8c-6.195 0-11.264-5.069-11.264-11.277v-28.672c0-6.195 5.069-11.264 11.264-11.264h3.072c6.208 0 11.264 5.069 11.264 11.264v28.672c0 6.208-5.056 11.277-11.264 11.277h-3.072zM151.795 326.515h3.072c6.208 0 11.264-5.069 11.264-11.264v-28.672c0-6.208-5.056-11.264-11.264-11.264h-3.072c-6.195 0-11.264 5.056-11.264 11.264v28.672c0 6.195 5.069 11.264 11.264 11.264v0zM158.362 441.639c-31.014 0-56.307-25.319-56.307-56.333v-148.506h307.226v148.506c0 31.027-25.293 56.333-56.307 56.333h-194.611z" />
<glyph unicode="&#xe622;" d="M381.837 236.723c11.738 0 30.771 0 49.305 0 23.257 0 42.227-18.983 42.227-42.253v-27.635c0-10.867-8.845-19.725-19.712-19.725h-11.763c-10.854 0-19.712 8.858-19.712 19.725v18.688h-40.346c-4.582-29.735-17.063-56.858-35.187-79.207-5.529-6.822-13.082-10.406-21.863-10.406h-214.707c-8.781 0-16.32 3.584-21.862 10.406-23.219 28.595-37.145 65.075-37.145 104.807 0 39.719 13.913 76.198 37.133 104.807 5.529 6.822 13.082 10.406 21.862 10.406h214.733c8.768 0 16.333-3.584 21.863-10.406 18.125-22.336 30.592-49.472 35.175-79.207v0zM328.179 57.767l34.074-51.136c1.779-2.663 1.933-5.849 0.423-8.666-1.51-2.829-4.25-4.467-7.45-4.467h-39.168c-5.824 0-10.829 2.675-14.055 7.514l-16.397 24.615c-2.688 4.032-6.861 6.272-11.712 6.272h-112.909c-4.851 0-9.024-2.24-11.712-6.272l-16.41-24.615c-3.226-4.839-8.231-7.514-14.055-7.514h-39.168c-3.2 0-5.939 1.639-7.45 4.467-1.51 2.816-1.357 6.003 0.422 8.678l34.074 51.123c5.389 8.077 13.722 12.531 23.424 12.531 58.202 0 116.416 0 174.618 0 9.715 0 18.061-4.454 23.45-12.531v0zM114.957 368.832v4.608c0 9.319 7.578 16.896 16.883 16.896h34.304v30.323c0 18.624 15.181 33.805 33.792 33.805h34.905c18.611 0 33.792-15.181 33.792-33.805v-30.31h34.291c9.305 0 16.896-7.591 16.896-16.896v-4.608c0-9.305-7.591-16.883-16.896-16.883h-171.072c-9.305-0.013-16.896 7.577-16.896 16.87z" />
<glyph unicode="&#xe623;" d="M432.051 441.28c15.501 0 28.122-12.621 28.096-28.109v-5.069c-0.026-30.95-25.255-56.166-56.205-56.166h-270.695c-30.951 0-56.205 25.267-56.179 56.243v5.005c0 15.475 12.621 28.083 28.070 28.083h326.912zM289.178 166.861c0.653-2.022 0.998-4.173 0.998-6.425 0-11.495-9.331-20.839-20.825-20.839-11.52 0-20.851 9.331-20.851 20.839 0 2.112 0.294 4.122 0.896 6.041l11.622 72.947c1.075 6.618 14.451 6.643 15.577 0.077l12.582-72.64zM268.672 275.226c-63.424 0-114.88-51.456-114.88-114.893 0-63.424 51.456-114.88 114.88-114.88s114.88 51.456 114.88 114.88c0 63.437-51.456 114.893-114.88 114.893v0zM396.327 54.144c23.974 28.787 38.425 65.817 38.425 106.189 0 40.397-14.451 77.415-38.425 106.202v37.376c0 12.391-10.099 22.49-22.477 22.49h-210.445c-12.377 0-22.477-10.099-22.477-22.49v-37.491c-23.898-28.774-38.297-65.754-38.297-106.087 0-40.32 14.4-77.312 38.297-106.073v-43.418c0-9.293 7.577-16.858 16.87-16.858h17.344c9.305 0 16.845 7.577 16.845 16.858v1.779c22.951-11.968 49.024-18.739 76.672-18.739 27.623 0 53.645 6.745 76.57 18.688v-1.728c0-9.305 7.577-16.858 16.845-16.858h17.37c9.28 0 16.845 7.565 16.845 16.858v43.303z" />
<glyph unicode="&#xe624;" d="M404.595 441.754c31.002 0 56.294-25.293 56.294-56.32v-322.586c0-31.040-25.305-56.346-56.294-56.346h-309.696c-31.002 0-56.294 25.318-56.294 56.346v322.573c0 31.040 25.305 56.32 56.294 56.32h309.696zM270.106 143.539c0 5.504-1.945 11.789-2.88 17.203l-8.231 47.552c-0.819 4.659-12.121 6.567-13.171-0.077l-7.577-47.475c-0.87-5.453-2.701-11.687-2.701-17.203 0-9.549 7.744-17.293 17.28-17.293 9.549 0 17.28 7.744 17.28 17.293v0zM252.377 229.415c-47.424 0-85.85-38.451-85.85-85.875 0-47.437 38.425-85.888 85.85-85.888 47.399 0 85.849 38.451 85.849 85.888 0 47.424-38.451 85.875-85.85 85.875v0zM281.702 379.341l0.026-79.539c0-7.744 2.777-14.426 8.256-19.904l34.701-34.714c5.504-5.491 12.173-8.269 19.93-8.256l53.798 0.038c6.195 0 11.277 5.056 11.277 11.264v131.111c0 6.195-5.069 11.264-11.277 11.264h-105.447c-0.013 0-11.264-0.218-11.264-11.264zM101.005 390.605c-6.195 0-11.251-5.069-11.251-11.264v-131.097c0-6.195 5.056-11.264 11.251-11.264l53.901-0.038c7.744-0.013 14.451 2.765 19.929 8.256l34.675 34.688c5.504 5.504 8.256 12.173 8.256 19.942l-0.038 79.514c-0.025 6.195-5.069 11.264-11.277 11.264h-105.447z" />
<glyph unicode="&#xe625;" d="M283.046 108.839h-237.747c-10.855 0-19.725-8.845-19.725-19.725v-26.368c0-31.027 25.306-56.333 56.32-56.333 116.019 0 232.051 0 348.070 0 31.002 0 56.294 25.318 56.294 56.333 0 90.457 0 180.903 0 271.334 0 31.040-25.305 56.333-56.294 56.333h-348.019c-31.027 0-56.32-25.306-56.32-56.333 0-9.369 0-18.765 0-28.147 0-31.027 25.306-56.333 56.32-56.333h84.903c27.929 0 50.701 22.771 50.701 50.701v0.512h65.498c6.221 0 11.277-5.069 11.277-11.264v-169.447c0-6.208-5.043-11.264-11.277-11.264v0zM390.195 210.304c17.178 0 31.104-13.939 31.104-31.117 0-17.19-13.926-31.117-31.104-31.117s-31.104 13.926-31.104 31.117c0.013 17.178 13.939 31.117 31.104 31.117v0zM390.195 300.083c17.178 0 31.104-13.939 31.104-31.13 0-17.177-13.926-31.104-31.104-31.104s-31.104 13.927-31.104 31.104c0.013 17.19 13.939 31.13 31.104 31.13v0zM362.496 455.014h55.706c9.305 0 16.87-7.603 16.87-16.896v-5.12c0-9.318-7.577-16.909-16.87-16.909h-55.706c-9.293-0.013-16.896 7.591-16.896 16.896v5.12c0 9.305 7.603 16.909 16.896 16.909v0zM84.698 455.014h81.331c9.331 0 16.896-7.603 16.896-16.896v-4.608c0-9.318-7.577-16.896-16.896-16.896h-81.331c-9.305 0-16.896 7.59-16.896 16.896v4.608c0 9.293 7.603 16.896 16.896 16.896v0zM140.749 224.051v-47.117c0-22.656-38.272-22.656-38.272 0v47.117h38.272z" />
<glyph unicode="&#xe626;" d="M133.043 390.272h245.696c31.014 0 56.307-25.305 56.307-56.333v-284.032c0-31.027-25.293-56.32-56.307-56.333h-245.696c-31.014 0-56.307 25.318-56.307 56.333v284.032c-0.013 31.040 25.28 56.333 56.307 56.333v0zM297.907 454.272h68.582c9.305 0 16.896-7.577 16.896-16.896v-4.595c0-9.319-7.591-16.896-16.896-16.896h-68.582c-9.305 0-16.896 7.591-16.896 16.896v4.595c0.013 9.319 7.591 16.896 16.896 16.896v0zM144.806 454.272h68.583c9.305 0 16.896-7.577 16.896-16.896v-4.595c0-9.319-7.59-16.896-16.896-16.896h-68.582c-9.305 0-16.896 7.591-16.896 16.896v4.595c0 9.319 7.591 16.896 16.896 16.896v0zM164.813 236.647c-6.195 0-11.264-5.069-11.264-11.277v-3.059c0-6.208 5.069-11.264 11.264-11.264h182.233c6.195 0 11.251 5.056 11.251 11.264v3.059c0 6.208-5.056 11.277-11.251 11.277h-182.233zM139.123 262.246c-6.208 0-11.264-5.056-11.264-11.264v-195.097c0-6.208 5.056-11.264 11.264-11.264h233.523c6.195 0 11.251 5.056 11.251 11.264v195.097c0 6.208-5.056 11.264-11.251 11.264h-233.523zM139.699 352.179c-14.221 0-25.741-11.533-25.741-25.766s11.52-25.754 25.741-25.754 25.754 11.52 25.754 25.754-11.546 25.766-25.754 25.766v0zM216.781 352.179c-14.208 0-25.741-11.533-25.741-25.766s11.52-25.754 25.741-25.754c14.221 0 25.754 11.52 25.754 25.754s-11.533 25.766-25.754 25.766v0zM293.863 352.179c-14.221 0-25.753-11.533-25.753-25.766s11.533-25.754 25.753-25.754 25.741 11.52 25.741 25.754-11.52 25.766-25.741 25.766v0zM370.944 352.179c-14.208 0-25.741-11.533-25.741-25.766s11.533-25.754 25.741-25.754c14.221 0 25.753 11.52 25.753 25.754s-11.52 25.766-25.753 25.766z" />
<glyph unicode="&#xe627;" d="M327.424 275.43c31.014 0 56.307-25.319 56.307-56.333 0-50.56-0.038-126.733-0.038-177.267 0-12.416-10.125-22.528-22.515-22.528h-6.106c-12.403 0-22.528 10.125-22.528 22.541v15.911h-243.2v-15.859c0-12.403-10.125-22.541-22.528-22.541h-6.182c-12.39 0-22.515 10.125-22.515 22.541 0 50.509 0 126.682 0 177.216 0 31.040 25.293 56.32 56.307 56.32h232.998zM213.095 411.303c34.714 0 119.398-1.152 119.398-50.138v-10.509c0-6.195-5.056-11.264-11.264-11.264h-3.072c-6.195 0-11.264-5.056-11.264-11.264v-27.136h-192v27.136c0 6.208-5.069 11.264-11.264 11.264h-3.072c-6.195 0-11.264 5.069-11.264 11.264v10.509c0.013 49.792 88.819 50.137 123.802 50.137v0zM409.28 211.379h35.827c15.501 0 28.16-12.647 28.16-28.173v-7.68c0-15.501-12.647-28.16-28.16-28.16h-35.827v64.013z" />
<glyph unicode="&#xe628;" d="M115.981 182.643c47.846 0 86.669-38.822 86.669-86.695 0-47.846-38.81-86.669-86.669-86.669-47.834 0-86.656 38.822-86.656 86.669 0 47.859 38.809 86.695 86.656 86.695v0zM376.717 224.179c-17.063 0-30.963-13.914-30.963-30.989v-14.835c0-17.063 13.901-30.989 30.963-30.989h66.035c17.063 0 30.976 13.926 30.976 30.989v14.835c0 17.075-13.913 30.989-30.976 30.989h-7.591v87.373c0 73.69-60.711 134.822-134.375 134.822-73.267 0-134.413-59.379-134.758-132.582h-6.848c-17.063 0-30.976-13.913-30.976-30.976v-21.824c-24.256 0-47.719-18.201-50.791-41.625-1.011-7.757 6.080-14.208 13.683-12.467 8.192 1.869 16.691 2.88 25.421 2.88 62.541 0 113.242-50.726 113.242-113.28 0-27.827-10.035-51.315-26.675-71.027-2.905-3.43-3.494-7.936-1.613-12.007s5.721-6.528 10.214-6.528h47.795c26.368 0 47.859 21.517 47.859 47.897v158.259c0 26.381-21.504 47.885-47.859 47.885h-3.328v21.824c0 17.063-13.913 30.976-30.976 30.976h-7.513c0.345 44.902 38.157 80.909 83.11 80.909 45.337 0 83.111-37.786 83.111-83.149v-87.373h-7.168v0.013zM115.981 128.358c-17.882 0-32.397-14.515-32.397-32.423 0-17.882 14.515-32.409 32.397-32.409 17.894 0 32.41 14.528 32.41 32.409 0 17.92-14.515 32.423-32.41 32.423z" />
<glyph unicode="&#xe629;" d="M421.901 35.175v-18.906c0-12.416-10.125-22.541-22.528-22.541h-6.131c-12.403 0-22.528 10.125-22.528 22.541v15.821c-67.738 0-149.913 0-217.549 0v-15.821c0-12.416-10.125-22.541-22.528-22.541h-6.131c-12.403 0-22.515 10.125-22.515 22.541v19.149c-22.016 7.667-37.99 28.429-37.99 53.005v20.48h396.711v-20.48c-0.013-24.858-16.384-45.811-38.81-53.248zM63.987 347.059c0 31.040 25.293 56.333 56.307 56.333h84.454v23.040c0 15.526 12.647 28.173 28.147 28.173h58.867c15.514 0 28.16-12.647 28.16-28.173v-23.040h84.454c31.014 0 56.307-25.305 56.307-56.333v-212.505h-396.697v212.505zM371.123 205.504c0-10.867 8.858-19.725 19.712-19.725h18.675v18.688c0 10.867-8.845 19.725-19.712 19.725h-18.675v-18.688zM371.123 269.504c0-10.855 8.858-19.712 19.712-19.712h18.675v18.688c0 10.867-8.845 19.725-19.712 19.725h-18.675v-18.701zM371.123 333.517c0-10.867 8.858-19.725 19.712-19.725h18.675v18.688c0 10.867-8.845 19.725-19.712 19.725h-18.675v-18.688zM307.136 205.504c0-10.867 8.858-19.725 19.712-19.725h18.675v18.688c0 10.867-8.858 19.725-19.712 19.725h-18.675v-18.688zM307.136 269.504c0-10.855 8.858-19.712 19.712-19.712h18.675v18.688c0 10.867-8.858 19.725-19.712 19.725h-18.675v-18.701zM307.136 333.517c0-10.867 8.858-19.725 19.712-19.725h18.675v18.688c0 10.867-8.858 19.725-19.712 19.725h-18.675v-18.688zM243.149 205.504c0-10.867 8.857-19.725 19.712-19.725h18.675v18.688c0 10.867-8.858 19.725-19.712 19.725h-18.675v-18.688zM243.149 269.504c0-10.855 8.857-19.712 19.712-19.712h18.675v18.688c0 10.867-8.858 19.725-19.712 19.725h-18.675v-18.701zM243.149 333.517c0-10.867 8.857-19.725 19.712-19.725h18.675v18.688c0 10.867-8.858 19.725-19.712 19.725h-18.675v-18.688zM179.161 205.504c0-10.867 8.857-19.725 19.712-19.725h18.675v18.688c0 10.867-8.845 19.725-19.712 19.725h-18.675v-18.688zM179.161 269.504c0-10.855 8.857-19.712 19.712-19.712h18.675v18.688c0 10.867-8.845 19.725-19.712 19.725h-18.675v-18.701zM179.161 333.517c0-10.867 8.857-19.725 19.712-19.725h18.675v18.688c0 10.867-8.845 19.725-19.712 19.725h-18.675v-18.688zM115.174 205.504c0-10.867 8.858-19.725 19.712-19.725h18.675v18.688c0 10.867-8.857 19.725-19.712 19.725h-18.675v-18.688zM115.174 269.504c0-10.855 8.858-19.712 19.712-19.712h18.675v18.688c0 10.867-8.857 19.725-19.712 19.725h-18.675v-18.701zM115.174 333.517c0-10.867 8.858-19.725 19.712-19.725h18.675v18.688c0 10.867-8.857 19.725-19.712 19.725h-18.675v-18.688z" />
<glyph unicode="&#xe62a;" d="M133.095 441.639h245.696c31.014 0 56.307-25.319 56.307-56.333v-322.457c0-31.027-25.293-56.32-56.307-56.32h-245.696c-31.014 0-56.307 25.305-56.307 56.32v322.457c0 31.014 25.293 56.333 56.307 56.333v0zM294.233 403.533c-14.221 0-25.753-11.533-25.753-25.767s11.52-25.753 25.753-25.753c14.208 0 25.741 11.52 25.741 25.753s-11.52 25.767-25.741 25.767v0zM282.406 258.368c-20.135 6.285-43.059 6.566-58.675-9.421-7.885-8.064-12.736-19.085-12.736-31.257 0-24.704 20.019-44.723 44.71-44.723 24.499 0 44.71-20.109 44.71-44.736 0-23.104-17.523-42.112-39.987-44.48l-1.639-0.55c47.424 2.394 86.246 41.050 86.349 89.767 0.089 39.911-26.227 74.010-62.733 85.401v0zM255.719 300.979c-70.669 0-127.962-57.331-127.962-128.026s57.305-128.026 127.962-128.026 127.974 57.331 127.974 128.025-57.318 128.025-127.975 128.025v0zM371.328 403.533c-14.221 0-25.741-11.533-25.741-25.767s11.52-25.753 25.741-25.753c14.221 0 25.741 11.52 25.741 25.753s-11.52 25.767-25.741 25.767z" />
<glyph unicode="&#xe62b;" d="M69.094 428.762h360.87c31.002 0 56.295-25.319 56.295-56.333v-257.421c0-25.127-15.795-46.502-38.579-53.721v-19.917c0-12.416-10.125-22.528-22.528-22.528h-6.144c-12.403 0-22.528 10.112-22.528 22.528v16.103h-294.131v-15.834c0-12.416-10.099-22.528-22.528-22.528h-6.118c-12.403 0-22.528 10.112-22.528 22.528v19.993c-22.272 7.475-38.374 28.608-38.374 53.363v257.433c-0.025 31.027 25.28 56.333 56.295 56.333v0zM75.2 326.336c-6.195 0-11.251-5.056-11.251-11.264v-195.174c0-6.208 5.056-11.277 11.251-11.277h348.621c6.195 0 11.251 5.069 11.251 11.277v195.174c0 6.208-5.056 11.264-11.251 11.264h-348.621zM249.523 403.149c-14.131 0-25.6-11.469-25.6-25.6s11.469-25.6 25.6-25.6c14.144 0 25.6 11.469 25.6 25.6s-11.443 25.6-25.6 25.6v0zM89.575 236.723v-85.517c0-9.318 7.578-16.896 16.896-16.896h55.77c9.305 0 16.896 7.591 16.896 16.896v85.517h-89.561zM336.819 287.923c-9.331 0-16.896-7.591-16.896-16.883v-8.717h89.575v8.717c0 9.306-7.603 16.883-16.896 16.883h-55.783zM221.619 287.923c-9.305 0-16.87-7.591-16.87-16.883v-8.717h89.574v8.717c0 9.306-7.603 16.883-16.896 16.883h-55.808zM106.471 287.923c-9.331 0-16.896-7.591-16.896-16.883v-8.717h89.575v8.717c0 9.306-7.603 16.883-16.896 16.883h-55.782zM319.923 236.723v-85.517c0-9.318 7.577-16.896 16.896-16.896h55.769c9.305 0 16.896 7.591 16.896 16.896v85.517h-89.562zM204.749 236.723v-85.517c0-9.318 7.577-16.896 16.87-16.896h55.795c9.305 0 16.896 7.591 16.896 16.896v85.517h-89.561z" />
<glyph unicode="&#xe62c;" d="M409.856 454.4h-0.512c-14.003 0-25.344-11.341-25.344-25.344v-13.056h-243.2c-21.209 0-38.4-17.19-38.4-38.4v-345.6c0-21.209 17.191-38.4 38.4-38.4h256c21.209 0 38.4 17.19 38.4 38.4v397.056c0 14.003-11.353 25.344-25.344 25.344zM179.2 44.8c-14.144 0-25.6 11.469-25.6 25.6 0 14.144 11.456 25.6 25.6 25.6s25.6-11.456 25.6-25.6c0-14.131-11.456-25.6-25.6-25.6zM268.8 44.8c-14.144 0-25.6 11.469-25.6 25.6 0 14.144 11.456 25.6 25.6 25.6s25.6-11.456 25.6-25.6c0-14.131-11.456-25.6-25.6-25.6zM358.4 44.8c-14.144 0-25.6 11.469-25.6 25.6 0 14.144 11.456 25.6 25.6 25.6s25.6-11.456 25.6-25.6c0-14.131-11.456-25.6-25.6-25.6zM384 147.2c0-7.065-5.735-12.8-12.8-12.8h-204.8c-7.065 0-12.8 5.735-12.8 12.8v204.8c0 7.065 5.734 12.8 12.8 12.8h204.8c7.065 0 12.8-5.735 12.8-12.8v-204.8zM285.478 311.923c-0.064 0.038-0.089 0.115-0.166 0.141l-14.144 7.079 14.144 7.079c2.176 1.088 3.533 3.303 3.533 5.721s-1.37 4.633-3.533 5.721l-25.6 12.8c-3.161 1.575-7.001 0.295-8.589-2.867-1.575-3.161-0.294-7.001 2.867-8.589l14.144-7.079-14.144-7.078c-2.176-1.088-3.533-3.303-3.533-5.721s1.369-4.634 3.533-5.721l1.856-0.922c-39.782-6.233-70.246-40.55-70.246-82.086 0-45.952 37.248-83.2 83.2-83.2s83.2 37.248 83.2 83.2c0 40.243-28.57 73.805-66.522 81.523zM216.089 255.769c0 11.443 9.28 20.711 20.71 20.711 11.443 0 20.71-9.28 20.71-20.711 0-11.443-9.28-20.71-20.71-20.71-11.443-0.013-20.71 9.267-20.71 20.71zM268.8 180.531c-19.353 0-35.84 11.981-42.637 28.902h85.274c-6.797-16.921-23.283-28.902-42.637-28.902zM300.8 235.047c-11.443 0-20.711 9.28-20.711 20.71 0 11.443 9.28 20.71 20.711 20.71 11.443 0 20.711-9.28 20.711-20.71s-9.267-20.71-20.711-20.71z" />
<glyph unicode="&#xe62d;" d="M192.256 377.6h-0.512c-14.003 0-25.344-11.354-25.344-25.344v-38.656h-89.6c-21.209 0-38.4-17.191-38.4-38.4v-217.6c0-21.209 17.191-38.4 38.4-38.4h102.4c21.209 0 38.4 17.19 38.4 38.4v294.656c0 13.99-11.353 25.344-25.344 25.344zM128 70.4c-14.144 0-25.6 11.469-25.6 25.6 0 14.144 11.456 25.6 25.6 25.6s25.6-11.456 25.6-25.6c0-14.131-11.456-25.6-25.6-25.6zM166.4 185.6c0-7.065-5.734-12.8-12.8-12.8h-51.2c-7.066 0-12.8 5.735-12.8 12.8v64c0 7.065 5.734 12.8 12.8 12.8h51.2c7.066 0 12.8-5.734 12.8-12.8v-64zM441.6 83.2h-32v72.96c-16.038-5.696-33.229-8.96-51.2-8.96s-35.161 3.264-51.2 8.96v-72.96h-32c-17.677 0-32-14.323-32-32s14.323-32 32-32h166.4c17.677 0 32 14.323 32 32s-14.323 32-32 32zM358.4 172.8c70.695 0 128 57.305 128 128s-57.305 128-128 128c-70.695 0-128-57.305-128-128s57.305-128 128-128zM358.4 380.8c44.185 0 80-35.815 80-80s-35.815-80-80-80c-44.185 0-80 35.815-80 80s35.815 80 80 80zM358.4 252.8c26.509 0 48 21.491 48 48s-21.491 48-48 48c-6.298 0-12.288-1.293-17.805-3.494l17.805-44.506-44.505 17.805c-2.202-5.517-3.495-11.507-3.495-17.805 0-26.509 21.491-48 48-48z" />
<glyph unicode="&#xe62e;" d="M256.397 208.743c101.197 0 169.075 20.889 199.577 38.925 9.715 5.747 14.208 17.318 11.52 28.288-23.296 95.053-108.851 165.645-211.098 165.645s-187.789-70.592-211.085-165.657c-2.688-10.957 1.805-22.541 11.52-28.288 30.502-18.023 98.368-38.912 199.565-38.912zM256.397 157.543c-69.734 0-142.298 9.869-194.496 30.618-9.408 3.738-19.379-4.851-17.037-14.695 22.784-95.795 108.775-167.065 211.533-167.065s188.749 71.271 211.533 167.065c2.342 9.843-7.629 18.432-17.037 14.695-52.199-20.749-124.762-30.618-194.496-30.618z" />
<glyph unicode="&#xe62f;" d="M217.305 372.787c-16.666-28.519-22.4-61.594-16.678-93.248 5.619-31.13-7.399-62.759-31.219-83.584l-113.6-99.405c-22.195-19.43-23.334-53.581-2.483-74.432l0.781-0.781c20.864-20.864 55.014-19.725 74.445 2.483l99.456 113.677c20.8 23.783 52.391 36.774 83.481 31.142 31.667-5.735 64.832-0.103 93.376 16.563 7.283 4.25 8.589 14.298 2.637 20.262l-169.946 169.933c-5.952 5.965-16 4.659-20.25-2.611zM434.509 232.154c5.926-5.927 15.949-4.697 20.185 2.535 33.344 56.985 22.4 132.697-33.139 177.139-44.032 35.239-107.175 38.951-155.379 11.418-7.296-4.16-8.512-14.259-2.573-20.198l170.905-170.893z" />
<glyph unicode="&#xe630;" d="M307.2 441.6h-1.792c-13.146 0-23.808-10.663-23.808-23.808v-1.549c0-9.677 5.76-18.176 14.413-22.502 34.099-17.049 55.821-55.181 47.987-97.331-6.553-35.251-34.791-63.795-69.99-70.643-57.382-11.174-107.609 32.461-107.609 87.833 0 35.034 20.109 65.331 49.421 80.051 8.704 4.377 14.579 12.877 14.579 22.63v1.511c0 13.145-10.662 23.808-23.808 23.808h-1.792c-84.826 0-153.6-68.774-153.6-153.6v-140.8c0-84.826 68.775-153.6 153.6-153.6h102.4c84.826 0 153.6 68.774 153.6 153.6v140.8c0 84.825-68.774 153.6-153.6 153.6zM316.864 93.197c-6.387-2.752-9.421-10.125-6.861-16.589 3.968-10.022 4.416-17.997 0.295-22.118s-12.096-3.673-22.118 0.295c-6.464 2.56-13.837-0.474-16.589-6.861-4.313-9.971-9.715-15.923-15.59-15.923s-11.277 5.952-15.59 15.936c-2.765 6.387-10.125 9.421-16.589 6.861-10.023-3.968-17.997-4.416-22.119-0.295s-3.673 12.096 0.294 22.118c2.56 6.464-0.474 13.837-6.861 16.589-9.984 4.313-15.936 9.715-15.936 15.591s5.952 11.277 15.936 15.603c6.387 2.752 9.421 10.125 6.861 16.589-3.968 10.022-4.416 17.997-0.294 22.118s12.096 3.673 22.119-0.295c6.464-2.56 13.837 0.474 16.589 6.861 4.314 9.971 9.715 15.923 15.59 15.923s11.277-5.952 15.59-15.936c2.765-6.387 10.125-9.421 16.589-6.861 10.022 3.968 17.997 4.416 22.118 0.295s3.673-12.096-0.295-22.118c-2.56-6.464 0.474-13.837 6.861-16.589 9.984-4.313 15.936-9.715 15.936-15.591s-5.952-11.277-15.936-15.603zM256 134.4c-14.144 0-25.6-11.456-25.6-25.6s11.456-25.6 25.6-25.6c14.144 0 25.6 11.456 25.6 25.6s-11.456 25.6-25.6 25.6z" />
<glyph unicode="&#xe631;" d="M147.2 236.8c-67.046 0-121.6-54.553-121.6-121.6s54.553-121.6 121.6-121.6c67.046 0 121.6 54.553 121.6 121.6s-54.553 121.6-121.6 121.6zM147.2 44.8c-38.822 0-70.4 31.577-70.4 70.4s31.578 70.4 70.4 70.4c38.822 0 70.4-31.577 70.4-70.4s-31.578-70.4-70.4-70.4zM179.2 115.2c0-17.673-14.327-32-32-32s-32 14.327-32 32c0 17.673 14.327 32 32 32s32-14.327 32-32zM485.043 98.957c-6.387 36.966-35.507 66.099-72.474 72.474-34.675 6.016-69.875-8.845-89.575-37.453-17.075-24.793-20.493-55.719-9.37-84.864 8.615-22.592 26.509-40.499 49.101-49.101 11.136-4.262 22.605-6.413 34.074-6.413 26.483 0 51.469 11.635 68.544 31.911 17.075 20.262 24.256 47.040 19.699 73.447zM426.189 58.483c-10.688-12.697-28.327-17.088-45.235-10.637-8.845 3.379-16.128 10.663-19.507 19.507-6.887 18.048-0.64 31.283 3.699 37.581 7.181 10.432 19.021 16.666 31.654 16.666 2.317 0 4.697-0.205 7.053-0.615 15.437-2.663 28.070-15.296 30.733-30.733 2.010-11.661-0.973-22.95-8.397-31.769zM337.715 165.965c9.728 8.154 11.801 21.978 5.568 32.576l62.733 63.859h27.904c14.131 0 25.6 11.469 25.6 25.6s-11.469 25.6-25.6 25.6h-101.12c-14.144 0-25.6-11.469-25.6-25.6s11.456-25.6 25.6-25.6h19.392l-33.382-33.971-23.629 28.224c-32.166 38.592-78.822 61.171-128.781 63.001v32.346c0 17.498 14.233 31.731 31.731 31.731 14.144 0 25.6 11.469 25.6 25.6s-11.456 25.6-25.6 25.6c-45.721 0.013-82.931-37.197-82.931-82.931v-76.8c0-14.131 11.456-25.6 25.6-25.6 11.802 0 21.645 8.039 24.602 18.893 35.097-1.536 67.84-17.485 90.483-44.685l45.76-54.656c5.069-6.029 12.339-9.152 19.648-9.152 5.798 0 11.635 1.959 16.423 5.965z" />
<glyph unicode="&#xe632;" d="M176.832 361.625c2.649-8.089 10.163-13.222 18.24-13.222 1.971 0 4.006 0.307 5.99 0.96 10.073 3.303 15.565 14.144 12.25 24.231l-15.872 48.397c-3.303 10.074-14.106 15.552-24.231 12.25-10.073-3.303-15.565-14.144-12.25-24.231l15.872-48.384zM325.811 349.197c1.817-0.538 3.648-0.807 5.466-0.807 8.281 0 15.923 5.402 18.406 13.747l14.336 48.397c3.008 10.163-2.791 20.851-12.966 23.859-10.087 3.034-20.851-2.778-23.859-12.954l-14.336-48.397c-3.021-10.15 2.777-20.839 12.954-23.846zM148.352 349.913l-17.229 25.6c-5.913 8.806-17.843 11.136-26.637 5.222-8.793-5.927-11.136-17.856-5.21-26.649l17.229-25.6c3.699-5.517 9.767-8.474 15.936-8.474 3.686 0 7.411 1.050 10.701 3.264 8.793 5.913 11.136 17.843 5.209 26.637zM263.155 358.131c10.599 0 19.2 8.589 19.2 19.2v56.589c0 10.611-8.601 19.2-19.2 19.2s-19.2-8.589-19.2-19.2v-56.589c0-10.599 8.601-19.2 19.2-19.2zM289.92 107.353c10.893-6.041 18.074-15.475 18.074-25.882 0-11.123-8.563-21.798-22.195-27.789-5.837-2.509-10.074-7.783-11.289-14.016-2.010-10.394 3.111-15.539 13.299-25.805 2.329-2.329 4.595-4.608 5.811-5.952 3.789-4.173 8.998-6.298 14.221-6.298 4.595 0 9.229 1.639 12.902 4.979 7.437 6.745 8.358 17.984 2.406 25.83 14.72 12.992 23.245 30.425 23.245 49.063 0 23.014-13.005 43.43-33.050 56.448-3.149 2.022-27.801-28.147-23.424-30.579zM239.207 53.581c-13.824 6.055-22.413 16.743-22.413 27.891 0 10.406 7.181 19.84 18.073 25.882 4.377 2.432-20.275 32.601-23.424 30.553-20.045-13.017-33.049-33.433-33.049-56.448 0-18.701 8.576-36.173 23.386-49.178-5.683-7.603-5.005-18.419 1.971-25.229 7.603-7.424 19.738-7.271 27.149 0.32l2.688 2.714c14.81 14.989 18.803 19.008 16.781 29.478-1.165 6.221-5.376 11.469-11.161 14.016zM419.635 381.171c-9.050 5.543-20.851 2.714-26.406-6.336l-15.693-25.6c-5.543-9.049-2.701-20.864 6.336-26.406 3.136-1.92 6.605-2.829 10.022-2.829 6.451 0 12.762 3.251 16.384 9.165l15.693 25.6c5.529 9.049 2.701 20.864-6.336 26.406zM369.817 284.979c-10.035-0.691-17.792-9.331-17.831-19.379-0.128-29.773-24.371-53.952-54.169-53.952h-9.869c-3.507 0-6.361 2.841-6.361 6.361v0.103c0 2.547 1.536 4.825 3.878 5.849 21.159 9.319 35.789 30.835 34.432 55.667-1.549 28.608-24.371 52.032-52.941 54.259-33.754 2.649-62.157-24.166-62.157-57.408 0-23.488 14.272-43.584 34.522-52.505 2.329-1.024 3.879-3.289 3.879-5.849v-0.103c0-3.507-2.841-6.361-6.362-6.361h-7.463c-29.798 0-54.054 24.179-54.169 53.952-0.038 10.048-7.795 18.688-17.831 19.379-11.226 0.781-20.57-8.089-20.57-19.149 0-47.040 35.303-85.926 80.793-91.737v-11.546c0-4.237 3.52-6.822 7.68-7.68 19.2-3.93 54.182-3.93 74.24 0 4.16 0.819 7.68 3.443 7.68 7.68v11.175c46.656 4.711 83.2 44.224 83.2 92.096 0 11.059-9.357 19.929-20.582 19.149z" />
<glyph unicode="&#xe633;" d="M102.4 6.4h76.8c35.341 0 64 28.659 64 64v76.8c0 35.341-28.659 64-64 64h-76.8c-35.341 0-64-28.659-64-64v-76.8c0-35.341 28.659-64 64-64zM268.8 147.2v-76.8c0-35.341 28.659-64 64-64h76.8c35.341 0 64 28.659 64 64v76.8c0 35.341-28.659 64-64 64h-76.8c-35.341 0-64-28.659-64-64zM294.4 441.6h-76.8c-35.341 0-64-28.659-64-64v-76.8c0-35.341 28.659-64 64-64h76.8c35.341 0 64 28.659 64 64v76.8c0 35.341-28.659 64-64 64z" />
<glyph unicode="&#xe634;" d="M424.793 418.253l-55.283 3.456c-9.241 0.576-17.715-4.595-21.837-12.877-16.768-33.677-51.495-56.832-91.673-56.832s-74.906 23.155-91.661 56.832c-4.121 8.281-12.608 13.453-21.837 12.877l-55.283-3.456c-20.249-1.267-36.019-18.048-36.019-38.323v-40.73c0-21.209 17.19-38.4 38.4-38.4h4.8c11.495 0 20.8-9.305 20.8-20.8v-132.8c-1.331-26.624 30.925-40.781 45.248-44.352 36.352-9.063 44.352-39.501 44.352-64v-0.896c0-17.421 14.131-31.552 31.552-31.552h38.72c17.741 0 32.128 14.387 32.128 32.128v0.32c0 24.499 13.466 57.523 44.352 64 15.501 3.251 45.248 19.853 45.248 44.352v132.8c0 11.495 9.318 20.8 20.8 20.8h4.8c21.209 0 38.4 17.19 38.4 38.4v40.729c0 20.275-15.769 37.056-36.007 38.323z" />
<glyph unicode="&#xe635;" d="M281.6 399.783v27.648c0 12.749-8.717 24.576-21.299 26.611-16.038 2.611-29.901-9.69-29.901-25.241v-28.954c-39.603-10.214-69.952-43.418-75.789-84.582-1.075-7.642 5.056-14.464 12.787-14.464h176.448c8.013 0 14.17 7.322 12.685 15.207-7.731 40.678-36.275 73.549-74.931 83.776zM89.6 249.856v-0.512c0-14.003 11.341-25.344 25.344-25.344h0.384c7.002 0 12.672-5.671 12.672-12.672v-166.528c0-28.275 22.925-51.2 51.2-51.2h153.6c28.275 0 51.2 22.925 51.2 51.2v166.528c0 7.002 5.671 12.672 12.672 12.672h0.384c13.99 0 25.344 11.341 25.344 25.344v0.512c0 14.003-11.353 25.344-25.344 25.344h-282.112c-14.003 0-25.344-11.341-25.344-25.344zM320 47.808h-128c-7.065 0-12.8 5.735-12.8 12.8v150.592c0 7.065 5.734 12.8 12.8 12.8h128c7.065 0 12.8-5.735 12.8-12.8v-150.592c0-7.065-5.735-12.8-12.8-12.8z" />
<glyph unicode="&#xe636;" d="M296.256 160h-80.243c-5.171 0-8.474-5.926-5.401-10.087 9.971-13.491 26.611-22.361 45.517-22.361s35.558 8.858 45.529 22.361c3.059 4.16-0.243 10.087-5.401 10.087zM228.647 233.997c0 15.693-12.889 28.403-28.8 28.403s-28.8-12.723-28.8-28.403c0-15.693 12.889-28.403 28.8-28.403s28.8 12.711 28.8 28.403zM256 416c-105.869 0-192-86.131-192-192s86.131-192 192-192c105.869 0 192 86.131 192 192s-86.131 192-192 192zM261.082 83.289c-77.491-2.752-144.435 60.544-145.856 138.073-0.461 25.113 5.671 48.743 16.755 69.312 14.835 3.738 34.931 15.539 48.73 30.695 6.298 6.912 16.64 8.614 24.064 2.957 28.787-21.926 87.296-36.327 129.024-36.327 15.68 0 30.63 2.074 44.39 5.773 11.776-20.582 18.611-44.352 18.611-69.773 0-76.058-60.313-138.035-135.719-140.71zM312.154 262.4c-15.911 0-28.8-12.723-28.8-28.403 0-15.693 12.889-28.403 28.8-28.403s28.8 12.711 28.8 28.403c0 15.68-12.902 28.403-28.8 28.403z" />
<glyph unicode="&#xe637;" d="M352 339.2c-14.144 0-25.6-11.469-25.6-25.6s11.456-25.6 25.6-25.6c45.875 0 83.2-37.325 83.2-83.2s-37.325-83.2-83.2-83.2c-30.759 0-58.893 16.896-73.421 44.083-0.909 1.702-8.179 14.695-22.387 14.695-17.382 0-23.296-15.744-23.373-15.911-5.274-11.226-12.416-21.632-23.001-28.096-82.765-50.457-169.817 37.837-116.787 120.499 14.169 22.080 39.872 32.013 66.099 31.13 16.397-0.551 29.504 14.323 25.881 31.232-2.585 12.083-14.31 20.096-26.675 19.942-75.93-0.935-136.909-65.152-132.506-142.233 3.469-60.633 48.973-112.921 108.659-124.16 45.99-8.666 90.893 6.733 121.51 38.080 24.909-25.485 59.264-40.461 96-40.461 74.112 0 134.4 60.288 134.4 134.4s-60.288 134.4-134.4 134.4zM160 236.8c-17.677 0-32-14.323-32-32s14.323-32 32-32c17.677 0 32 14.323 32 32s-14.323 32-32 32zM384 204.8c0 17.677-14.323 32-32 32s-32-14.323-32-32c0-17.677 14.323-32 32-32s32 14.323 32 32z" />
<glyph unicode="&#xe638;" d="M192 57.6c0-35.341 28.659-64 64-64s64 28.659 64 64c0 35.353-32 64-64 128-32-64-64-92.647-64-128zM395.251 441.6h-279.232c-37.709 0-64.589-38.695-49.203-73.114 30.157-67.494 100.838-115.264 183.769-117.273-11.187-3.533-22.054-6.183-32.525-7.885-5.197-0.845-8.166-6.695-5.197-11.034 9.242-13.517 25.063-22.464 43.149-22.464 17.779 0 33.408 8.64 42.714 21.773 3.072 4.339 0.038 10.266-5.223 11.097-10.803 1.69-21.735 4.518-32.653 8.487 81.575 1.767 151.385 47.808 182.553 113.395 16.96 35.725-8.601 77.017-48.154 77.017z" />
<glyph unicode="&#xe639;" d="M127.591 5.478h38.387c7.065 0 12.8 5.735 12.8 12.8v38.4c0 34.752 23.399 64.307 55.219 73.677 5.286 1.562 8.781 6.592 8.781 12.096v16.615c0 7.065-5.734 12.8-12.8 12.8h-102.387c-21.209 0-38.4-17.19-38.4-38.4v-89.587c0-21.197 17.191-38.4 38.4-38.4zM268.365 159.065v-16.615c0-5.517 3.495-10.534 8.781-12.096 31.821-9.382 55.219-38.925 55.219-73.677v-38.4c0-7.065 5.735-12.8 12.8-12.8h38.387c21.209 0 38.4 17.19 38.4 38.4v89.587c0 21.209-17.19 38.4-38.4 38.4h-102.387c-7.065 0-12.8-5.735-12.8-12.8zM319.552 287.053h-127.975c-21.209 0-38.4-17.19-38.4-38.4v-38.387c0-7.065 5.734-12.8 12.8-12.8h179.175c7.065 0 12.8 5.735 12.8 12.8v38.387c0 21.209-17.19 38.4-38.4 38.4zM238.707 422.541l-49.613-90.957c-4.659-8.525 1.523-18.931 11.238-18.931h110.464c9.715 0 15.885 10.406 11.238 18.931l-49.613 90.957c-7.271 13.337-26.432 13.337-33.715 0z" />
<glyph unicode="&#xe63a;" d="M460.8 224h-89.6c-7.065 0-12.8 5.734-12.8 12.8v38.4c0 7.065 5.735 12.8 12.8 12.8h46.707c4.902 0 7.872 5.402 5.261 9.549l-15.065 24.55c-7.040 11.123-19.277 17.856-32.448 17.856h-42.855c-14.144 0-25.6-11.456-25.6-25.6v-116.083c0-7.002-5.671-12.672-12.672-12.672h-0.256c-7.002 0-12.672 5.671-12.672 12.672v140.928c0 21.209-17.19 38.4-38.4 38.4h-179.2c-21.209 0-38.4-17.19-38.4-38.4v-166.4c0-21.209 17.191-38.4 38.4-38.4h5.401c-3.43-7.846-5.401-16.486-5.401-25.6 0-35.341 28.659-64 64-64s64 28.659 64 64c0 9.113-1.971 17.753-5.401 25.6h138.803c-3.43-7.846-5.401-16.486-5.401-25.6 0-35.341 28.659-64 64-64s64 28.659 64 64c0 9.113-1.971 17.753-5.401 25.6h5.401c21.209 0 38.4 17.19 38.4 38.4v25.6c0 14.144-11.456 25.6-25.6 25.6zM153.6 108.8c0-14.118-11.482-25.6-25.6-25.6s-25.6 11.481-25.6 25.6 11.481 25.6 25.6 25.6c14.119 0 25.6-11.481 25.6-25.6zM409.6 108.8c0-14.118-11.481-25.6-25.6-25.6s-25.6 11.481-25.6 25.6 11.481 25.6 25.6 25.6c14.118 0 25.6-11.481 25.6-25.6z" />
<glyph unicode="&#xe63b;" d="M409.6 236.544v0.512c0 14.003-11.341 25.344-25.344 25.344h-243.712c-13.99 0-25.344-11.341-25.344-25.344v-0.512c0-14.003 11.353-25.344 25.344-25.344h45.504c24.499 0 44.352-19.853 44.352-44.352v-0.768c0-17.498 14.183-31.68 31.68-31.68h0.64c17.498 0 31.68 14.183 31.68 31.68v0.768c0 24.499 19.853 44.352 44.352 44.352h45.504c14.003 0 25.344 11.341 25.344 25.344zM307.2 441.6h-89.6c-35.341 0-64-28.659-64-64v-76.8c0-7.065 5.734-12.8 12.8-12.8h192c7.065 0 12.8 5.735 12.8 12.8v76.8c0 35.341-28.659 64-64 64zM151.45 6.4h0.896c21.901 0 39.655 17.753 39.655 39.654v126.745c0 7.065-5.734 12.8-12.8 12.8h-28.058c-6.042 0-11.251-4.211-12.518-10.125l-25.959-121.113c-5.273-24.678 13.543-47.962 38.784-47.962zM373.658 185.6h-28.058c-7.065 0-12.8-5.735-12.8-12.8v-126.745c0-21.901 17.753-39.654 39.654-39.654h0.896c25.241 0 44.058 23.283 38.771 47.962l-25.959 121.113c-1.255 5.913-6.477 10.125-12.505 10.125z" />
<glyph unicode="&#xe63c;" d="M435.2 300.8h-38.4v12.928c0 7.002 5.671 12.672 12.672 12.672h0.384c13.99 0 25.344 11.354 25.344 25.344v0.512c0 13.99-11.353 25.344-25.344 25.344h-358.912c-14.003 0-25.344-11.354-25.344-25.344v-0.512c0-13.99 11.341-25.344 25.344-25.344h0.384c7.002 0 12.672-5.67 12.672-12.672v-204.928c0-35.341 28.659-64 64-64h204.8c35.341 0 64 28.659 64 64v0.896c0 15.373 7.911 29.645 20.954 37.798l46.669 29.171c13.671 8.538 21.978 23.526 21.978 39.654v33.28c0 28.275-22.925 51.2-51.2 51.2zM231.463 123.2c-30.336 0-54.938 24.589-54.938 54.938s27.469 54.938 54.938 109.863c27.469-54.938 54.937-79.526 54.937-109.863s-24.589-54.938-54.938-54.938zM435.2 216.691c0-4.416-2.279-8.512-6.016-10.854l-12.8-8c-8.525-5.325-19.584 0.807-19.584 10.854v28.109c0 7.066 5.735 12.8 12.8 12.8h12.8c7.065 0 12.8-5.734 12.8-12.8v-20.109z" />
<glyph unicode="&#xe63d;" d="M435.763 347.341c23.923 8.807 40.423 24.627 37.491 37.005-3.161 13.363-27.673 17.536-54.745 9.331-5.709-1.741-10.969-3.942-15.859-6.387-17.984 35.929-57.344 59.289-101.491 53.094-42.406-5.965-76.762-40.448-82.611-82.88-3.213-23.27 1.831-45.184 12.57-63.36 7.526-12.736 5.863-29.133-3.571-40.537-9.344-11.303-21.389-18.215-32.55-20.633-30.707-6.669-57.92 1.178-72.205 10.675-6.567 4.365-10.291 11.879-18.125 14.375-20.608 6.553-44.851-7.577-54.157-31.577-1.523-4.762-9.767-21.427-9.767-49.408-0.013-88.781 91.059-160.743 203.417-160.755s203.443 71.936 203.456 160.717c0 36.262-15.271 69.671-40.935 96.55-6.579 6.899-8.743 17.203-4.352 25.664 1.152 2.227 2.227 4.506 3.2 6.835 4.096-1.869 8.371-3.622 12.992-5.017 27.072-8.218 51.584-4.045 54.758 9.319 2.893 12.365-13.594 28.173-37.517 36.992zM315.303 317.12c-14.656 0-26.534 11.879-26.534 26.534s11.878 26.535 26.534 26.535c14.656 0 26.534-11.878 26.534-26.535-0.013-14.656-11.878-26.534-26.534-26.534z" />
<glyph unicode="&#xe63e;" d="M396.723 250.279h-71.834c-16.845 0-30.49 13.645-30.49 30.49v1.907c0 9.369 4.582 17.882 11.687 24 19.187 16.512 30.131 42.304 25.753 70.439-5.197 33.369-32.998 60.006-66.547 63.949-46.566 5.453-86.093-30.784-86.093-76.262 0-23.399 10.496-44.314 27.008-58.381 7.014-5.977 11.392-14.451 11.392-23.68v-1.984c0-16.832-13.645-30.489-30.489-30.489h-71.834c-14.183 0.013-25.677-11.494-25.677-25.664v-0.525c0-14.182 11.495-25.677 25.677-25.677h115.123c0-14.144 11.456-25.6 25.6-25.6s25.6 11.456 25.6 25.6h115.123c14.183 0 25.677 11.495 25.677 25.677v0.525c0 14.169-11.495 25.677-25.677 25.677zM310.835 154.496c-10.714 9.229-26.893 8-36.096-2.739-9.203-10.726-7.987-26.893 2.752-36.096 7.373-6.323 11.597-15.424 11.597-24.973-0.013-18.253-14.848-33.088-33.088-33.088s-33.075 14.835-33.075 33.075c0 9.549 4.224 18.649 11.597 24.973 10.726 9.216 11.955 25.37 2.752 36.096-9.216 10.726-25.369 11.968-36.096 2.739-18.714-16.064-29.44-39.322-29.44-63.808-0.025-46.464 37.785-84.275 84.263-84.275s84.275 37.811 84.275 84.275c0 24.499-10.726 47.757-29.44 63.821z" />
<glyph unicode="&#xe63f;" d="M256 454.4c-127.245 0-230.4-103.155-230.4-230.4s103.155-230.4 230.4-230.4c127.245 0 230.4 103.155 230.4 230.4s-103.155 230.4-230.4 230.4zM232.691 46.285c-79.347 10.061-143.565 73.83-154.227 153.101-6.029 44.839 4.723 86.963 26.765 121.19 8.64 13.401 30.208 2.675 24.282-12.121-0.064-0.154-0.115-0.295-0.179-0.448-5.069-12.339-20.633-25.472-23.322-28.058-16.525-15.911-16.051-35.43-7.117-45.594 9.101-10.355 26.010-18.829 48.307-3.417 14.669 10.137 26.343 15.782 38.822-7.104 12.774-23.424 22.054-34.944 39.36-40.986 8.281-2.893 2.035-16.653-10.893-10.534-15.053 7.117-36.352 3.917-46.848-9.459-7.424-9.459-9.049-14.541-12.403-23.002-1.767-4.454-6.4-7.040-10.944-5.543l-2.061 0.678c-5.581 1.83-11.584-1.216-13.415-6.784l-0.064-0.205c-1.831-5.581 1.831-10.265 6.797-13.414 7.334-4.647 14.272-6.515 22.195-7.296 13.043-1.293 25.382 2.854 29.952 15.142 2.791 7.501 9.881 10.329 15.987 5.901 15.898-11.533 64.039-33.203 112.857 10.342 17.139 15.296 32.653 44.109 34.586 72.525 1.139 16.691 9.51 32.384 23.462 41.613 10.841 7.181 18.445 17.447 20.685 29.709 5.197 28.416-20.211 57.024-56.576 63.68-7.271 1.331-14.349 0.896-21.223 0.935-27.443 0.128-53.069-18.24-58.547-48.154-4.583-25.011 14.759-45.453 29.197-45.376 12.429 0.064 9.562-17.997-8.013-14.502-12.787 2.547-27.226 7.616-40.589 48.512-6.362 19.456-37.837 11.507-28.467-15.859 3.686-10.765 11.034-49.037 52.237-62.4 7.411-2.406 2.445-14.745-9.651-10.483-27.955 9.843-37.734 23.552-45.107 37.145-4.173 7.706-8.55 15.578-16.384 22.31-26.803 23.014-61.094-7.040-62.797-8.192-9.255-6.195-15.654 1.805-8.883 8.025 2.457 2.253 25.191 22.208 32.55 40.089 6.003 14.592 6.887 28.941 4.288 41.831-3.891 19.225 6.541 38.605 24.358 46.809 28.851 13.299 61.798 19.162 96.474 14.951 84.48-10.279 151.155-80.973 156.685-165.901 7.283-111.962-88.921-204.019-202.137-189.657z" />
<glyph unicode="&#xe640;" d="M473.382 247.309l-0.499 0.397c-11.481 8.947-14.669 24.947-7.501 37.619l0.346 0.614c9.433 16.653 0.691 37.735-17.753 42.829l-0.615 0.166c-14.055 3.891-23.13 17.472-21.351 31.949l0.077 0.627c2.342 18.995-13.798 35.136-32.793 32.793l-0.627-0.077c-14.464-1.792-28.058 7.296-31.949 21.351l-0.166 0.615c-5.094 18.432-26.189 27.174-42.841 17.728l-0.563-0.32c-12.672-7.194-28.711-3.994-37.671 7.501l-0.397 0.499c-11.763 15.104-34.599 15.104-46.375 0l-0.384-0.499c-8.96-11.495-24.999-14.695-37.671-7.501l-0.563 0.32c-16.653 9.446-37.747 0.704-42.841-17.741l-0.167-0.614c-3.879-14.055-17.472-23.13-31.949-21.351l-0.64 0.077c-18.995 2.355-35.136-13.786-32.781-32.781l0.077-0.653c1.792-14.464-7.296-28.045-21.338-31.923l-0.614-0.166c-18.445-5.094-27.187-26.189-17.753-42.841l0.333-0.576c7.181-12.672 3.981-28.697-7.514-37.658l-0.499-0.397c-15.091-11.763-15.104-34.573-0.026-46.349l0.563-0.448c11.469-8.96 14.643-24.96 7.475-37.619l-0.32-0.55c-17.677-43.315 41.293-64.819 62.208-54.31 27.482 13.811 1.561 45.594 15.706 64.166 13.671 17.959 39.526 7.347 56.218 1.6 0.051-0.013 0.089-0.038 0.141-0.051 5.798-1.997 11.469 3.289 9.894 9.216-0.013 0.038-0.025 0.077-0.025 0.115-2.496 9.37-5.363 20.659-4.583 31.526-3.725 29.453 8.73 62.963 35.673 87.539 40.295 36.749 97.536 39.603 127.846 6.362 30.323-33.242 22.233-89.971-18.048-126.72-25.869-23.603-58.714-33.19-86.951-28.25-6.695 1.165-13.581-1.587-17.049-7.424-1.536-2.586-3.507-5.043-6.016-7.322-15.655-14.285-36.57-7.079-53.389-1.293-1.651 0.576-3.609 1.241-5.657 1.907-4.544 1.498-8.973-2.599-7.846-7.257 0.013-0.026 0.013-0.064 0.025-0.089 3.623-14.899 4.595-33.549-15.846-44.352-17.869-9.433-32.397 0.32-42.432-7.053-6.272-4.608-4.186-12.889 0.947-18.099 5.491-5.581 13.401-9.639 21.581-8.627l0.691 0.089c14.451 1.767 28.019-7.309 31.885-21.337l0.167-0.627c5.095-18.445 26.176-27.187 42.829-17.741l0.55 0.32c12.685 7.193 28.723 4.007 37.696-7.488l0.397-0.499c11.776-15.091 34.599-15.091 46.375 0l0.397 0.512c8.973 11.495 24.998 14.669 37.671 7.488l0.563-0.32c16.653-9.447 37.747-0.704 42.841 17.753l0.166 0.615c3.878 14.041 17.447 23.117 31.897 21.351l0.717-0.089c18.983-2.317 35.098 13.811 32.755 32.793l-0.077 0.627c-1.792 14.451 7.283 28.045 21.312 31.936l0.704 0.192c18.419 5.12 27.136 26.176 17.702 42.816l-0.32 0.55c-7.194 12.685-4.007 28.723 7.488 37.696l0.499 0.397c15.104 11.75 15.091 34.585-0.013 46.362z" />
<glyph unicode="&#xe641;" d="M153.6 441.6c-56.55 0-102.4-48.717-102.4-108.8 0-36.774 17.191-69.248 43.481-88.921 12.672-9.485 20.519-24.051 20.519-39.897v-159.565c0-20.992 17.024-38.016 38.016-38.016h0.768c20.992 0 38.016 17.024 38.016 38.016v159.565c0 15.834 7.846 30.413 20.518 39.898 26.291 19.673 43.481 52.147 43.481 88.922 0 60.083-45.85 108.8-102.4 108.8zM441.792 441.6h-0.384c-10.496 0-19.008-8.512-19.008-19.008v-83.52c0-7.001-5.671-12.672-12.672-12.672h-0.256c-7.002 0-12.672 5.671-12.672 12.672v83.52c0 10.496-8.512 19.008-19.008 19.008h-0.384c-10.496 0-19.008-8.512-19.008-19.008v-83.52c0-7.001-5.671-12.672-12.672-12.672h-0.256c-7.002 0-12.672 5.671-12.672 12.672v83.52c0 10.496-8.512 19.008-19.008 19.008h-0.384c-10.496 0-19.008-8.512-19.008-19.008v-160.576c0-16.128 10.279-29.927 24.563-35.443 8.154-3.149 13.837-10.573 13.837-19.315v-156.505c0-24.499 19.853-44.352 44.352-44.352h0.896c24.499 0 44.352 19.853 44.352 44.352l0.346 156.557c0.013 8.704 5.671 16.103 13.798 19.264 14.195 5.504 24.256 19.303 24.256 35.443v160.576c0 10.496-8.512 19.008-19.008 19.008z" />
<glyph unicode="&#xe642;" d="M256 89.165c17.741 0 33.344 8.973 42.624 22.618 2.829 4.16-0.435 9.817-5.466 9.817h-74.317c-5.030 0-8.294-5.658-5.465-9.817 9.267-13.645 24.883-22.618 42.624-22.618zM326.336 364.070c11.405 0.871 22.080 2.496 30.336 4.647 32.269 8.423 44.915 31.693 38.541 54.669-6.387 22.976-29.376 36.954-61.645 28.544-20.711-5.401-52.185-22.951-70.541-40.909-1.869-1.831-12.185-1.792-14.016 0-18.368 17.959-49.831 35.507-70.541 40.909-32.281 8.409-55.27-5.568-61.645-28.544-6.387-22.976 6.259-46.246 38.541-54.669 8.243-2.15 18.918-3.776 30.336-4.647-74.983-29.657-127.079-105.063-121.216-191.719 6.374-94.438 82.253-171.021 176.627-178.189 112.538-8.55 206.887 80.64 206.887 191.437 0 81.024-50.534 150.336-121.664 178.471zM338.279 398.797c1.933-6.963-7.347-11.879-25.331-16.576-3.968-1.037-8.281-1.933-12.608-2.663-4.199-0.691-8.243 1.754-9.792 5.722-0.013 0.051-0.038 0.103-0.064 0.153-1.843 4.672 0.589 9.971 5.325 11.661 4.019 1.433 8.089 2.713 11.968 3.725 17.997 4.685 28.57 4.954 30.502-2.022zM174.733 398.797c1.933 6.963 12.506 6.707 30.502 2.010 3.546-0.922 7.257-2.074 10.944-3.354 4.839-1.677 7.347-7.053 5.427-11.789-0.038-0.102-0.077-0.205-0.115-0.294-1.561-3.942-5.607-6.336-9.779-5.619-3.994 0.691-7.962 1.523-11.635 2.483-17.997 4.685-27.277 9.6-25.344 16.563zM250.841 304.666c1.933 4.825 8.397 4.839 10.342 0.013 12.941-32.102 47.399-55.078 87.488-55.078 7.834 0 15.411 0.947 22.656 2.637 4.57 1.063 9.408-1.255 11.443-5.478 11.917-24.601 16.947-53.159 12.327-83.238-9.51-61.926-60.825-110.963-123.085-117.837-84.928-9.37-156.813 56.883-156.813 139.917 0 21.978 5.082 42.726 14.067 61.261 2.048 4.224 6.887 6.554 11.456 5.465 7.373-1.754 15.078-2.726 23.053-2.726 40.090 0 74.24 22.963 87.066 55.065zM340.954 195.597c0-15.687-12.894-28.403-28.8-28.403s-28.8 12.716-28.8 28.403c0 15.687 12.894 28.403 28.8 28.403s28.8-12.716 28.8-28.403zM228.647 195.597c0-15.687-12.894-28.403-28.8-28.403s-28.8 12.716-28.8 28.403c0 15.687 12.894 28.403 28.8 28.403s28.8-12.716 28.8-28.403zM228.647 195.597c0 15.693-12.889 28.403-28.8 28.403s-28.8-12.711-28.8-28.403c0-15.68 12.889-28.403 28.8-28.403s28.8 12.711 28.8 28.403zM293.159 121.6h-74.317c-5.030 0-8.294-5.658-5.465-9.817 9.28-13.645 24.883-22.618 42.624-22.618s33.344 8.973 42.624 22.618c2.829 4.16-0.435 9.817-5.466 9.817zM326.336 364.070c11.405 0.871 22.080 2.496 30.336 4.647 32.269 8.423 44.915 31.693 38.541 54.669-6.387 22.976-29.376 36.954-61.645 28.544-20.711-5.401-52.185-22.951-70.541-40.909-1.869-1.831-12.185-1.792-14.016 0-18.368 17.959-49.831 35.507-70.541 40.909-32.281 8.409-55.27-5.568-61.645-28.544-6.387-22.976 6.259-46.246 38.541-54.669 8.243-2.15 18.918-3.776 30.336-4.647-74.983-29.657-127.079-105.063-121.216-191.719 6.374-94.438 82.253-171.021 176.627-178.189 112.538-8.55 206.887 80.64 206.887 191.437 0 81.024-50.534 150.336-121.664 178.471zM295.821 397.094c4.019 1.434 8.089 2.714 11.968 3.725 17.984 4.685 28.57 4.954 30.502-2.010s-7.347-11.879-25.331-16.576c-3.968-1.037-8.281-1.933-12.608-2.662-4.211-0.704-8.256 1.741-9.805 5.709-0.013 0.051-0.038 0.103-0.064 0.154-1.83 4.672 0.601 9.971 5.337 11.661zM174.733 398.797c1.933 6.963 12.506 6.707 30.502 2.010 3.546-0.922 7.257-2.074 10.944-3.354 4.839-1.677 7.347-7.053 5.427-11.789-0.038-0.102-0.077-0.205-0.115-0.294-1.561-3.942-5.607-6.336-9.779-5.619-3.994 0.691-7.962 1.523-11.635 2.483-17.997 4.685-27.277 9.6-25.344 16.563zM272.013 45.683c-84.928-9.37-156.813 56.883-156.813 139.917 0 21.978 5.082 42.726 14.067 61.261 2.048 4.224 6.887 6.554 11.456 5.465 7.373-1.754 15.078-2.726 23.053-2.726 40.077 0 74.24 22.963 87.066 55.065 1.933 4.825 8.397 4.839 10.342 0.013 12.941-32.102 47.399-55.078 87.488-55.078 7.834 0 15.411 0.947 22.656 2.637 4.57 1.063 9.408-1.255 11.443-5.478 11.917-24.601 16.947-53.159 12.327-83.238-9.498-61.926-60.813-110.963-123.085-117.837zM312.154 224c-15.911 0-28.8-12.711-28.8-28.403 0-15.68 12.889-28.403 28.8-28.403s28.8 12.723 28.8 28.403c0 15.693-12.902 28.403-28.8 28.403z" />
<glyph unicode="&#xe643;" d="M465.37 412.16c1.715 3.495 0.281 7.719-3.213 9.434l-0.064 0.038c-9.831 5.581-30.131-1.075-39.13-9.024-2.854-2.522-6.375-2.893-10.125-2.253-78.438 13.337-126.093-28.019-151.706-80.281-4.57-9.319-12.045-16.474-21.773-16.474-22.592 0-124.16 0-124.16 0-28.275 0-51.2-22.925-51.2-51.2v-13.056c0-14.003 11.341-25.344 25.344-25.344h0.512c13.99 0 25.344 11.341 25.344 25.344v32.32c0 3.495 2.841 6.336 6.336 6.336h0.128c3.495 0 6.336-2.841 6.336-6.336v-171.034c-16.742 8.294-31.808 18.137-44.109 29.658-10.304 9.651-26.522 9.139-36.185-1.178s-9.139-26.522 1.178-36.185c48.090-45.069 122.125-70.925 203.098-70.925 80.986 0 155.008 25.856 203.111 70.925 10.317 9.664 10.841 25.869 1.178 36.185-9.69 10.317-25.882 10.829-36.185 1.178-13.466-12.621-30.144-23.347-48.883-32.064v205.504c0 7.002 5.671 12.672 12.672 12.672h0.256c7.002 0 12.672-5.671 12.672-12.672v-8.384c0-2.995 0.691-5.939 2.035-8.614l4.147-8.295c4.058-8.115 12.352-13.235 21.414-13.235h0.256c6.375 0 12.096 3.878 14.464 9.792l19.366 49.101c1.651 4.173 2.394 8.679 1.971 13.133-0.768 8.115-2.893 15.821-6.041 22.963-1.753 3.981-5.517 12.365-3.584 16.256l14.541 25.715zM251.981 83.2c-28.953 0-56.973 4.185-82.688 11.571l8.192 32.755c1.126 4.505 3.456 8.615 6.733 11.891l9.344 9.344c7.194 7.194 11.238 16.96 11.238 27.149v0.256c0 5.209 4.224 9.433 9.434 9.433h82.56c7.245 0 13.529-5.005 15.155-12.058l18.457-80.013c-24.538-6.618-51.072-10.329-78.425-10.329z" />
<glyph unicode="&#xe644;" d="M416.32 390.4h-134.72v25.856c0 14.003-11.341 25.344-25.344 25.344h-0.512c-14.003 0-25.344-11.341-25.344-25.344v-25.856h-134.72c-17.498 0-31.68-14.183-31.68-31.68v-0.64c0-17.498 14.183-31.68 31.68-31.68h320.64c17.498 0 31.68 14.183 31.68 31.68v0.64c0 17.498-14.183 31.68-31.68 31.68zM140.8 144.474v157.184h-38.4v-157.184c-29.504-8.384-51.2-35.52-51.2-67.673 0-38.822 31.578-70.4 70.4-70.4s70.4 31.577 70.4 70.4c0 32.154-21.696 59.289-51.2 67.673zM121.6 48.64c-15.552 0-28.16 12.608-28.16 28.16s12.608 28.16 28.16 28.16 28.16-12.608 28.16-28.16c0-15.552-12.608-28.16-28.16-28.16zM396.8 172.8v128.858h-38.4v-128.858c-29.504-8.384-51.2-35.52-51.2-67.673 0-38.822 31.577-70.4 70.4-70.4s70.4 31.577 70.4 70.4c0 32.154-21.696 59.289-51.2 67.673zM377.6 76.966c-15.552 0-28.16 12.608-28.16 28.16s12.608 28.16 28.16 28.16 28.16-12.608 28.16-28.16c0-15.552-12.608-28.16-28.16-28.16zM268.8 258.88v42.778h-38.4v-42.778c-22.323-7.936-38.4-29.030-38.4-54.080 0-31.808 25.792-57.6 57.6-57.6s57.6 25.792 57.6 57.6c0 25.037-16.077 46.144-38.4 54.080z" />
<glyph unicode="&#xe645;" d="M473.6 332.8c0 14.72-8.768 27.392-21.363 33.075-2.752 1.242-2.663 5.171 0.089 6.425 14.387 6.541 23.757 22.208 20.697 39.616-2.56 14.592-14.528 26.56-29.12 29.107-17.408 3.046-33.063-6.31-39.603-20.711-1.255-2.752-5.184-2.841-6.425-0.077-5.683 12.595-18.355 21.363-33.075 21.363-14.707 0-27.379-8.755-33.063-21.351-1.229-2.714-5.171-2.714-6.4 0-5.696 12.595-18.355 21.351-33.075 21.351-14.707 0-27.379-8.755-33.063-21.351-1.229-2.714-5.171-2.714-6.4 0-5.696 12.595-18.355 21.351-33.063 21.351s-27.379-8.755-33.063-21.351c-1.229-2.714-5.171-2.714-6.4 0-5.696 12.595-18.368 21.351-33.075 21.351-14.72 0-27.392-8.768-33.075-21.363-1.242-2.752-5.171-2.675-6.425 0.077-6.541 14.4-22.208 23.77-39.603 20.711-14.592-2.56-26.56-14.528-29.12-29.12-3.059-17.408 6.31-33.075 20.698-39.603 2.752-1.255 2.841-5.184 0.090-6.425-12.595-5.683-21.363-18.355-21.363-33.075 0-14.707 8.755-27.379 21.35-33.063 2.713-1.229 2.713-5.171 0-6.4-12.595-5.696-21.35-18.355-21.35-33.075 0-14.707 8.755-27.379 21.35-33.063 2.713-1.229 2.713-5.171 0-6.4-12.595-5.683-21.35-18.355-21.35-33.063s8.755-27.379 21.35-33.063c2.713-1.229 2.713-5.171 0-6.4-12.595-5.696-21.35-18.368-21.35-33.075 0-14.72 8.768-27.392 21.363-33.075 2.752-1.241 2.663-5.171-0.090-6.425-14.387-6.541-23.757-22.208-20.698-39.603 2.56-14.592 14.528-26.56 29.107-29.12 17.408-3.059 33.075 6.31 39.616 20.697 1.254 2.752 5.184 2.841 6.425 0.089 5.683-12.595 18.355-21.363 33.075-21.363 14.707 0 27.379 8.755 33.063 21.351 1.229 2.714 5.171 2.714 6.4 0 5.696-12.595 18.355-21.351 33.075-21.351 14.707 0 27.379 8.755 33.063 21.351 1.229 2.714 5.171 2.714 6.4 0 5.683-12.595 18.355-21.351 33.063-21.351s27.379 8.755 33.063 21.351c1.229 2.714 5.171 2.714 6.4 0 5.696-12.595 18.368-21.351 33.075-21.351 14.72 0 27.392 8.768 33.075 21.363 1.241 2.752 5.171 2.663 6.425-0.089 6.541-14.387 22.208-23.757 39.603-20.711 14.592 2.56 26.56 14.528 29.12 29.12 3.059 17.408-6.31 33.075-20.697 39.603-2.752 1.255-2.841 5.184-0.089 6.425 12.595 5.696 21.363 18.368 21.363 33.088 0 14.707-8.755 27.379-21.351 33.063-2.714 1.229-2.714 5.171 0 6.4 12.595 5.696 21.351 18.355 21.351 33.075s-8.755 27.379-21.351 33.063c-2.714 1.229-2.714 5.171 0 6.4 12.595 5.683 21.351 18.355 21.351 33.063s-8.755 27.379-21.351 33.063c-2.714 1.229-2.714 5.171 0 6.4 12.595 5.696 21.351 18.368 21.351 33.075zM329.152 202.931c-6.221-2.394-9.241-9.69-6.528-15.769 6.375-14.361 7.462-25.856 1.753-31.552-5.696-5.696-17.178-4.621-31.552 1.753-6.093 2.701-13.376-0.32-15.769-6.528-5.645-14.669-13.005-23.552-21.069-23.552s-15.411 8.883-21.069 23.552c-2.393 6.221-9.69 9.241-15.769 6.528-14.362-6.375-25.856-7.462-31.552-1.753-5.696 5.696-4.621 17.178 1.754 31.552 2.701 6.093-0.32 13.376-6.528 15.769-14.669 5.645-23.552 13.005-23.552 21.069 0 8.051 8.883 15.411 23.552 21.069 6.221 2.393 9.242 9.69 6.528 15.769-6.375 14.362-7.45 25.856-1.754 31.552s17.178 4.621 31.552-1.754c6.093-2.701 13.376 0.32 15.769 6.528 5.645 14.669 13.005 23.552 21.069 23.552 8.051 0 15.411-8.883 21.069-23.552 2.394-6.221 9.69-9.241 15.769-6.528 14.361 6.375 25.856 7.45 31.552 1.754s4.621-17.178-1.753-31.552c-2.701-6.093 0.32-13.376 6.528-15.769 14.669-5.645 23.552-13.005 23.552-21.069s-8.883-15.411-23.552-21.069zM288.243 224c0-17.808-14.436-32.243-32.243-32.243s-32.243 14.436-32.243 32.243c0 17.808 14.436 32.243 32.243 32.243s32.243-14.436 32.243-32.243z" />
<glyph unicode="&#xe646;" d="M396.8 390.4h-281.6c-42.419 0-76.8-34.381-76.8-76.8v-63.68c0-21.389 17.331-38.72 38.72-38.72h1.28c48.602 0 88-39.399 88-88v-1.664c0-42.381 34.355-76.736 76.736-76.736h25.728c42.381 0 76.736 34.355 76.736 76.736v1.664c0 48.601 39.399 88 88 88h1.28c21.389 0 38.72 17.331 38.72 38.72v63.68c0 42.419-34.381 76.8-76.8 76.8z" />
<glyph unicode="&#xe647;" d="M409.6 249.6c-60.007 13.401-163.891 16.090-243.2 9.088v32.512c0 49.523 40.41 89.767 90.048 89.6 28.723 0 52.825-11.635 69.721-33.664 10.739-14.016 30.835-16.691 44.864-5.927 14.029 10.752 16.678 30.835 5.926 44.864-29.043 37.888-71.821 58.726-120.409 58.726-0.179 0-0.358 0-0.538 0-84.697 0-153.6-68.902-153.6-153.6v-41.6c-34.496-7.68-64-28.659-64-64v-115.2c0-35.341 29.415-56.678 64-64 82.599-17.485 235.981-16.64 307.2 0 34.419 8.051 64 28.659 64 64v115.2c-0.013 35.341-29.517 56.294-64.013 64zM169.6 135.629c-15.911 0-28.8 12.711-28.8 28.403s12.889 28.403 28.8 28.403 28.8-12.711 28.8-28.403c0-15.68-12.903-28.403-28.8-28.403zM311.629 82.176c-12.109-17.805-32.474-29.529-55.629-29.529-23.168 0-43.533 11.712-55.642 29.517-3.686 5.427 0.576 12.813 7.143 12.813h96.999c6.553 0.013 10.829-7.385 7.13-12.8zM342.4 135.629c-15.911 0-28.8 12.711-28.8 28.403s12.889 28.403 28.8 28.403c15.911 0 28.8-12.711 28.8-28.403 0-15.68-12.889-28.403-28.8-28.403z" />
<glyph unicode="&#xe648;" d="M409.6 249.6v41.6c0 84.697-68.903 153.6-153.6 153.6s-153.6-68.902-153.6-153.6v-41.6c-34.496-7.68-64-28.659-64-64v-115.2c0-35.341 29.415-56.678 64-64 82.599-17.485 235.981-16.64 307.2 0 34.419 8.051 64 28.659 64 64v115.2c0 35.341-29.504 56.294-64 64zM166.4 291.2c0 49.408 40.192 89.6 89.6 89.6s89.6-40.192 89.6-89.6v-32.448c-56.179 4.966-123.648 4.851-179.2-0.051v32.499zM169.6 135.629c-15.911 0-28.8 12.711-28.8 28.403s12.889 28.403 28.8 28.403 28.8-12.711 28.8-28.403c0-15.68-12.903-28.403-28.8-28.403zM311.629 82.176c-12.109-17.817-32.474-29.529-55.629-29.529-23.168 0-43.533 11.712-55.642 29.517-3.686 5.427 0.576 12.813 7.143 12.813h96.999c6.553 0.013 10.829-7.373 7.13-12.8zM342.4 135.629c-15.911 0-28.8 12.711-28.8 28.403s12.889 28.403 28.8 28.403 28.8-12.711 28.8-28.403c0-15.68-12.889-28.403-28.8-28.403z" />
<glyph unicode="&#xe649;" d="M481.562 85.286c12.262 88.32-8.832 171.763-58.457 229.721-41.639 48.614-100.979 75.392-167.104 75.392-66.304 0-125.721-26.739-167.321-75.303-49.485-57.779-70.515-141.261-58.24-229.811-3.008-4.199-4.838-9.318-4.838-14.887 0-14.131 11.469-25.6 25.6-25.6h409.6c14.131 0 25.6 11.469 25.6 25.6 0 5.568-1.83 10.675-4.839 14.887zM345.6 236.8c14.118 0 25.6-11.482 25.6-25.6s-11.481-25.6-25.6-25.6-25.6 11.481-25.6 25.6 11.481 25.6 25.6 25.6zM166.4 198.4c14.119 0 25.6-11.481 25.6-25.6s-11.482-25.6-25.6-25.6-25.6 11.481-25.6 25.6 11.482 25.6 25.6 25.6zM127.565 281.779c7.949 9.28 16.666 17.472 26.035 24.55v-84.16c-22.016-5.721-38.4-25.6-38.4-49.382 0-28.237 22.963-51.2 51.2-51.2s51.2 22.963 51.2 51.2c0 23.782-16.384 43.661-38.4 49.382v99.712c19.392 9.549 40.857 15.168 64 16.691v-79.731c-7.616-4.429-12.8-12.595-12.8-22.055 0-14.144 11.456-25.6 25.6-25.6s25.6 11.456 25.6 25.6c0 9.459-5.184 17.613-12.8 22.054v79.731c23.13-1.523 44.595-7.194 64-16.819v-61.184c-22.016-5.721-38.4-25.6-38.4-49.382 0-28.237 22.963-51.2 51.2-51.2s51.2 22.963 51.2 51.2c0 23.782-16.384 43.661-38.4 49.382v45.517c9.28-7.053 17.92-15.181 25.805-24.397 39.411-46.016 56.128-113.331 46.938-185.702h-350.298c-9.191 72.601 7.45 139.955 46.72 185.792z" />
<glyph unicode="&#xe64a;" d="M407.936 339.2c22.131 0 40.064 17.024 40.064 38.016v0.768c0 20.992-17.933 38.016-40.064 38.016h-316.672c-22.131 0-40.064-17.024-40.064-38.016v-0.768c0-20.992 17.933-38.016 40.064-38.016h11.136v-30.067c-29.811-10.547-51.2-38.912-51.2-72.333v-140.8c0-42.419 34.381-76.8 76.8-76.8h243.2c42.419 0 76.8 34.381 76.8 76.8v140.8c0 33.421-21.389 61.786-51.2 72.333v30.067h11.136zM384 108.8h-268.8c-7.066 0-12.8 5.735-12.8 12.8v89.6c0 7.065 5.734 12.8 12.8 12.8h268.8c7.065 0 12.8-5.735 12.8-12.8v-89.6c0-7.065-5.735-12.8-12.8-12.8z" />
<glyph unicode="&#xe64b;" d="M256.384 441.6h-0.768c-20.992 0-38.016-17.024-38.016-38.016v-51.584h76.8v51.584c0 20.992-17.024 38.016-38.016 38.016zM301.248 326.4h-90.496c-24.499 0-44.352-19.853-44.352-44.352v-0.896c0-24.499 19.853-44.352 44.352-44.352h90.496c24.499 0 44.352 19.853 44.352 44.352v0.896c0 24.499-19.853 44.352-44.352 44.352zM352.448 211.2h-192.896c-24.499 0-44.352-19.853-44.352-44.352v-0.896c0-24.499 19.853-44.352 44.352-44.352h192.896c24.499 0 44.352 19.853 44.352 44.352v0.896c0 24.499-19.853 44.352-44.352 44.352zM64 51.648v-0.896c0-24.499 19.853-44.352 44.352-44.352h295.296c24.499 0 44.352 19.853 44.352 44.352v0.896c0 24.499-19.853 44.352-44.352 44.352h-295.296c-24.499 0-44.352-19.853-44.352-44.352z" />
<glyph unicode="&#xe64c;" d="M409.6 249.6h-0.896c-7.629 0-14.938 3.021-20.327 8.422l-80.537 80.537c-16.807 16.793-39.591 26.24-63.36 26.24h-65.28c-28.275 0-51.2-22.925-51.2-51.2v-51.2c0-7.065-5.734-12.8-12.8-12.8h-12.8c-7.066 0-12.8 5.734-12.8 12.8v108.941c9.933 7.501 15.475 20.518 11.507 34.624-2.931 10.471-11.571 18.969-22.093 21.709-21.389 5.581-40.614-10.394-40.614-30.874 0-10.432 5.069-19.609 12.8-25.459v-124.096c-14.886-5.286-25.6-19.353-25.6-36.045v-51.2c0-17.229 11.417-31.629 27.047-36.493-2.701-13.939-1.933-29.12 5.12-45.017 10.893-24.538 33.933-42.649 60.569-45.901 46.733-5.696 86.464 30.618 86.464 76.211 0 4.365-0.448 8.627-1.152 12.8h104.704c-0.704-4.173-1.152-8.435-1.152-12.8 0-20.083 7.719-38.375 20.339-52.058 16.205-17.562 40.512-27.546 66.983-24.038 26.265 3.481 48.858 21.453 59.648 45.645 7.117 15.949 7.897 31.181 5.184 45.159 15.629 4.864 27.046 19.264 27.046 36.493v12.8c0 42.419-34.381 76.8-76.8 76.8zM179.2 300.8c0 7.065 5.734 12.8 12.8 12.8h66.202c6.784 0 13.299-2.701 18.099-7.501l43.315-43.315c4.864-4.864 1.421-13.184-5.466-13.184h-122.15c-7.066 0-12.8 5.734-12.8 12.8v38.4zM158.72 108.8c0-16.973-13.76-30.72-30.72-30.72-16.973 0-30.72 13.747-30.72 30.72 0 4.582 1.075 8.896 2.867 12.8h55.693c1.805-3.904 2.88-8.217 2.88-12.8zM384 78.080c-16.973 0-30.72 13.747-30.72 30.72 0 4.582 1.075 8.896 2.867 12.8h55.693c1.805-3.904 2.867-8.217 2.867-12.8 0.013-16.973-13.747-30.72-30.707-30.72z" />
<glyph unicode="&#xe64d;" d="M485.837 318.912c-2.931 13.837-16.512 22.656-30.361 19.725-46.041-9.792-118.106-20.813-199.923-17.805-87.719 3.238-154.905 9.063-199.693 17.357-13.927 2.535-27.251-6.63-29.837-20.518-2.573-13.913 6.618-27.264 20.518-29.837 47.232-8.729 116.928-14.848 207.13-18.163 9.997-0.371 19.84-0.537 29.543-0.537 74.714 0 139.661 10.227 182.899 19.417 13.837 2.944 22.669 16.537 19.725 30.362zM433.113 249.831c-51.827-8.32-113.792-12.851-178.496-12.851-63.475 0-124.506 4.377-175.808 12.416-7.808 1.229-14.809-4.697-14.809-12.595v-204.8c0-14.144 11.456-25.6 25.6-25.6h12.8c14.144 0 25.6 11.456 25.6 25.6v12.8h256v-12.8c0-14.144 11.456-25.6 25.6-25.6h12.966c14.144 0 25.613 11.469 25.6 25.625l-0.154 205.209c-0.013 7.923-7.079 13.85-14.899 12.595zM350.041 94.451h-71.513l-48.601 60.749c-4.416 5.529-12.48 6.4-17.984 1.997-5.53-4.416-6.413-12.467-1.997-17.984l35.802-44.762h-76.019c-7.757 0-13.863 6.873-12.787 14.553 7.078 50.522 50.47 89.395 102.938 89.395 52.48 0 95.872-38.873 102.938-89.408 1.088-7.667-5.017-14.541-12.774-14.541z" />
<glyph unicode="&#xe64e;" d="M425.408 406.029l-71.219 4.185c-5.735 0.333-11.059-3.161-12.8-8.64-11.52-36.173-45.389-62.375-85.389-62.375s-73.869 26.202-85.389 62.387c-1.741 5.466-7.065 8.973-12.8 8.64l-71.219-4.198c-27.059-1.587-48.192-24-48.192-51.111v-28.519c0-28.275 22.925-51.2 51.2-51.2h0.768c13.709 0 24.832-11.123 24.832-24.832v-167.168c0-28.275 24.845-40.947 51.2-51.2 43.392-16.883 132.966-17.241 179.2 0 26.496 9.882 51.2 22.925 51.2 51.2v167.168c0 13.709 11.123 24.832 24.832 24.832h0.768c28.275 0 51.2 22.925 51.2 51.2v28.519c0 27.111-21.133 49.523-48.192 51.111zM256 70.4c-14.144 0-25.6 11.456-25.6 25.6s11.456 25.6 25.6 25.6c14.144 0 25.6-11.456 25.6-25.6s-11.456-25.6-25.6-25.6zM256 160c-14.144 0-25.6 11.456-25.6 25.6s11.456 25.6 25.6 25.6c14.144 0 25.6-11.456 25.6-25.6s-11.456-25.6-25.6-25.6zM256 249.6c-14.144 0-25.6 11.456-25.6 25.6s11.456 25.6 25.6 25.6c14.144 0 25.6-11.456 25.6-25.6s-11.456-25.6-25.6-25.6z" />
<glyph unicode="&#xe64f;" d="M469.325 204.429l-46.899 16.55c-15.36 5.415-25.625 19.929-25.625 36.211v43.609h6.592c10.496 0 19.008 8.512 19.008 19.008v0.384c0 10.496-8.512 19.008-19.008 19.008h-108.992c-14.144 0-25.6-11.456-25.6-25.6v-153.6c0-28.275 22.925-51.2 51.2-51.2h102.4c35.341 0 64 28.659 64 64v7.488c0 10.854-6.848 20.531-17.075 24.141zM217.6 339.2h-108.992c-10.496 0-19.008-8.512-19.008-19.008v-0.384c0-10.496 8.512-19.008 19.008-19.008h6.592v-43.609c0-16.281-10.266-30.797-25.626-36.211l-46.899-16.55c-10.227-3.61-17.075-13.286-17.075-24.141v-7.488c0-35.341 28.659-64 64-64h102.4c28.275 0 51.2 22.925 51.2 51.2v153.6c0 14.144-11.456 25.6-25.6 25.6z" />
<glyph unicode="&#xe650;" d="M281.472 44.8c-7.002 0-12.672 5.671-12.672 12.672v0.256c0 7.002 5.671 12.672 12.672 12.672h89.728v51.2h-140.928c-7.001 0-12.672 5.671-12.672 12.672v0.256c0 7.002 5.671 12.672 12.672 12.672h140.928v51.2h-89.728c-7.002 0-12.672 5.671-12.672 12.672v0.256c0 7.002 5.671 12.672 12.672 12.672h89.728v51.2h-140.928c-7.001 0-12.672 5.671-12.672 12.672v0.256c0 7.001 5.671 12.672 12.672 12.672h152.998c9.523 0 14.183 11.622 7.309 18.202l-119.322 114.137c-4.954 4.736-12.749 4.736-17.69 0l-119.322-114.137c-6.899-6.579-2.24-18.202 7.283-18.202h12.071v-268.8c0-21.209 17.19-38.4 38.4-38.4h140.8c21.209 0 38.4 17.19 38.4 38.4v12.8h-89.728z" />
<glyph unicode="&#xe651;" d="M121.6 121.6c-31.808 0-57.6-25.792-57.6-57.6s25.792-57.6 57.6-57.6c31.808 0 57.6 25.792 57.6 57.6s-25.792 57.6-57.6 57.6zM121.6 44.8c-10.585 0-19.2 8.615-19.2 19.2s8.615 19.2 19.2 19.2c10.585 0 19.2-8.615 19.2-19.2s-8.614-19.2-19.2-19.2zM339.2 121.6c-31.808 0-57.6-25.792-57.6-57.6s25.792-57.6 57.6-57.6c31.808 0 57.6 25.792 57.6 57.6s-25.792 57.6-57.6 57.6zM339.2 44.8c-10.586 0-19.2 8.615-19.2 19.2s8.615 19.2 19.2 19.2c10.586 0 19.2-8.615 19.2-19.2s-8.615-19.2-19.2-19.2zM422.656 441.6h-30.247c-13.581 0-26.599-5.389-36.199-15.002l-259.43-259.418c-12.096-12.096-3.533-32.781 13.568-32.781h153.242c73.575 0 133.209 59.635 133.209 133.197v110.003c0 7.065 5.735 12.8 12.8 12.8h13.056c13.99 0 25.344 11.341 25.344 25.344v0.512c0 14.003-11.353 25.344-25.344 25.344z" />
</font>
</defs>
</svg>
